Pilsner-Bold.ufo
<glyph name="exclam" format="1">
  <advance width="256"/>
  <unicode hex="0021"/>
  <outline>
    <contour>
      <point x="203" y="595" type="line"/>
      <point x="194" y="347" type="line"/>
      <point x="163" y="180" type="line"/>
      <point x="93" y="180" type="line"/>
      <point x="62" y="347" type="line"/>
      <point x="53" y="595" type="line"/>
    </contour>
    <contour>
      <point x="207" y="69" type="line"/>
      <point x="203" y="0" type="line"/>
      <point x="53" y="0" type="line"/>
      <point x="49" y="69" type="line"/>
      <point x="53" y="138" type="line"/>
      <point x="203" y="138" type="line"/>
    </contour>
  </outline>
</glyph>
<glyph name="quotedbl" format="1">
  <advance width="444"/>
  <unicode hex="0022"/>
  <outline>
    <contour>
      <point x="405" y="486" type="line"/>
      <point x="372" y="330" type="line"/>
      <point x="290" y="330" type="line"/>
      <point x="257" y="486" type="line"/>
      <point x="266" y="595" type="line"/>
      <point x="396" y="595" type="line"/>
    </contour>
    <contour>
      <point x="187" y="486" type="line"/>
      <point x="154" y="330" type="line"/>
      <point x="72" y="330" type="line"/>
      <point x="39" y="486" type="line"/>
      <point x="48" y="595" type="line"/>
      <point x="178" y="595" type="line"/>
    </contour>
  </outline>
</glyph>
<glyph name="numbersign" format="1">
  <advance width="641"/>
  <unicode hex="0023"/>
  <outline>
    <contour>
      <point x="622" y="365" type="line"/>
      <point x="510" y="357" type="line"/>
      <point x="487" y="282" type="line"/>
      <point x="470" y="240" type="line"/>
      <point x="582" y="232" type="line"/>
      <point x="582" y="137" type="line"/>
      <point x="427" y="127" type="line"/>
      <point x="373" y="-10" type="line"/>
      <point x="309" y="11" type="line"/>
      <point x="343" y="121" type="line"/>
      <point x="271" y="117" type="line"/>
      <point x="177" y="124" type="line"/>
      <point x="125" y="-10" type="line"/>
      <point x="61" y="11" type="line"/>
      <point x="98" y="131" type="line"/>
      <point x="19" y="137" type="line"/>
      <point x="19" y="232" type="line"/>
      <point x="131" y="240" type="line"/>
      <point x="155" y="318" type="line"/>
      <point x="170" y="357" type="line"/>
      <point x="59" y="365" type="line"/>
      <point x="59" y="460" type="line"/>
      <point x="214" y="470" type="line"/>
      <point x="268" y="607" type="line"/>
      <point x="332" y="586" type="line"/>
      <point x="298" y="475" type="line"/>
      <point x="371" y="480" type="line"/>
      <point x="463" y="472" type="line"/>
      <point x="516" y="607" type="line"/>
      <point x="580" y="586" type="line"/>
      <point x="543" y="466" type="line"/>
      <point x="622" y="460" type="line"/>
    </contour>
    <contour>
      <point x="416" y="350" type="line"/>
      <point x="341" y="345" type="line"/>
      <point x="260" y="351" type="line"/>
      <point x="239" y="282" type="line"/>
      <point x="225" y="247" type="line"/>
      <point x="301" y="252" type="line"/>
      <point x="381" y="246" type="line"/>
      <point x="403" y="318" type="line"/>
    </contour>
  </outline>
</glyph>
<glyph name="dollar" format="1">
  <advance width="541"/>
  <unicode hex="0024"/>
  <outline>
    <contour>
      <point x="486" y="508" type="line"/>
      <point x="455" y="390" type="line"/>
      <point x="271" y="456" type="line"/>
      <point x="209" y="438" type="line"/>
      <point x="209" y="391" type="line"/>
      <point x="480" y="289" type="line"/>
      <point x="480" y="113" type="line"/>
      <point x="331" y="64" type="line"/>
      <point x="342" y="-10" type="line"/>
      <point x="198" y="-10" type="line"/>
      <point x="209" y="64" type="line"/>
      <point x="43" y="100" type="line"/>
      <point x="74" y="219" type="line"/>
      <point x="254" y="139" type="line"/>
      <point x="337" y="157" type="line"/>
      <point x="337" y="205" type="line"/>
      <point x="66" y="307" type="line"/>
      <point x="66" y="482" type="line"/>
      <point x="209" y="530" type="line"/>
      <point x="198" y="605" type="line"/>
      <point x="342" y="605" type="line"/>
      <point x="331" y="530" type="line"/>
    </contour>
  </outline>
</glyph>
<glyph name="percent" format="1">
  <advance width="1025"/>
  <unicode hex="0025"/>
  <outline>
    <contour>
      <point x="430" y="419" type="line"/>
      <point x="409" y="268" type="line"/>
      <point x="283" y="237" type="line"/>
      <point x="181" y="237" type="line"/>
      <point x="55" y="267" type="line"/>
      <point x="34" y="418" type="line"/>
      <point x="55" y="569" type="line"/>
      <point x="181" y="600" type="line"/>
      <point x="283" y="600" type="line"/>
      <point x="409" y="570" type="line"/>
    </contour>
    <contour>
      <point x="718" y="583" type="line"/>
      <point x="536" y="206" type="line"/>
      <point x="377" y="-12" type="line"/>
      <point x="307" y="12" type="line"/>
      <point x="489" y="389" type="line"/>
      <point x="648" y="607" type="line"/>
    </contour>
    <contour>
      <point x="991" y="177" type="line"/>
      <point x="970" y="26" type="line"/>
      <point x="844" y="-5" type="line"/>
      <point x="742" y="-5" type="line"/>
      <point x="616" y="25" type="line"/>
      <point x="595" y="176" type="line"/>
      <point x="616" y="327" type="line"/>
      <point x="742" y="358" type="line"/>
      <point x="844" y="358" type="line"/>
      <point x="970" y="328" type="line"/>
    </contour>
    <contour>
      <point x="306" y="418" type="line"/>
      <point x="291" y="521" type="line"/>
      <point x="232" y="531" type="line"/>
      <point x="173" y="521" type="line"/>
      <point x="158" y="419" type="line"/>
      <point x="173" y="316" type="line"/>
      <point x="232" y="306" type="line"/>
      <point x="291" y="316" type="line"/>
    </contour>
    <contour>
      <point x="867" y="176" type="line"/>
      <point x="852" y="279" type="line"/>
      <point x="793" y="289" type="line"/>
      <point x="734" y="279" type="line"/>
      <point x="719" y="177" type="line"/>
      <point x="734" y="74" type="line"/>
      <point x="793" y="64" type="line"/>
      <point x="852" y="74" type="line"/>
    </contour>
  </outline>
</glyph>
<glyph name="ampersand" format="1">
  <advance width="565"/>
  <unicode hex="0026"/>
  <outline>
    <contour>
      <point x="548" y="375" type="line"/>
      <point x="449" y="172" type="line"/>
      <point x="545" y="58" type="line"/>
      <point x="434" y="-12" type="line"/>
      <point x="373" y="61" type="line"/>
      <point x="251" y="-2" type="line"/>
      <point x="132" y="-2" type="line"/>
      <point x="40" y="43" type="line"/>
      <point x="23" y="149" type="line"/>
      <point x="49" y="258" type="line"/>
      <point x="166" y="309" type="line"/>
      <point x="114" y="371" type="line"/>
      <point x="100" y="491" type="line"/>
      <point x="154" y="595" type="line"/>
      <point x="438" y="595" type="line"/>
      <point x="416" y="473" type="line"/>
      <point x="211" y="499" type="line"/>
      <point x="203" y="464" type="line"/>
      <point x="394" y="237" type="line"/>
      <point x="422" y="375" type="line"/>
    </contour>
    <contour>
      <point x="330" y="112" type="line"/>
      <point x="208" y="259" type="line"/>
      <point x="168" y="236" type="line"/>
      <point x="154" y="169" type="line"/>
      <point x="162" y="94" type="line"/>
      <point x="218" y="62" type="line"/>
    </contour>
  </outline>
</glyph>
<glyph name="quotesingle" format="1">
  <advance width="226"/>
  <unicode hex="0027"/>
  <outline>
    <contour>
      <point x="187" y="486" type="line"/>
      <point x="154" y="330" type="line"/>
      <point x="72" y="330" type="line"/>
      <point x="39" y="486" type="line"/>
      <point x="48" y="595" type="line"/>
      <point x="178" y="595" type="line"/>
    </contour>
  </outline>
</glyph>
<glyph name="parenleft" format="1">
  <advance width="428"/>
  <unicode hex="0028"/>
  <outline>
    <contour>
      <point x="380" y="-101" type="line"/>
      <point x="346" y="-152" type="line"/>
      <point x="111" y="-41" type="line"/>
      <point x="62" y="227" type="line"/>
      <point x="111" y="496" type="line"/>
      <point x="346" y="607" type="line"/>
      <point x="380" y="556" type="line"/>
      <point x="258" y="467" type="line"/>
      <point x="218" y="227" type="line"/>
      <point x="258" y="-12" type="line"/>
    </contour>
  </outline>
</glyph>
<glyph name="parenright" format="1">
  <advance width="428"/>
  <unicode hex="0029"/>
  <outline>
    <contour>
      <point x="366" y="227" type="line"/>
      <point x="317" y="-41" type="line"/>
      <point x="87" y="-152" type="line"/>
      <point x="48" y="-96" type="line"/>
      <point x="180" y="-2" type="line"/>
      <point x="220" y="227" type="line"/>
      <point x="180" y="457" type="line"/>
      <point x="48" y="551" type="line"/>
      <point x="87" y="607" type="line"/>
      <point x="317" y="496" type="line"/>
    </contour>
  </outline>
</glyph>
<glyph name="asterisk" format="1">
  <advance width="408"/>
  <unicode hex="002A"/>
  <outline>
    <contour>
      <point x="378" y="432" type="line"/>
      <point x="243" y="426" type="line"/>
      <point x="349" y="342" type="line"/>
      <point x="252" y="271" type="line"/>
      <point x="204" y="398" type="line"/>
      <point x="156" y="271" type="line"/>
      <point x="59" y="342" type="line"/>
      <point x="165" y="426" type="line"/>
      <point x="30" y="432" type="line"/>
      <point x="67" y="547" type="line"/>
      <point x="180" y="472" type="line"/>
      <point x="144" y="603" type="line"/>
      <point x="264" y="603" type="line"/>
      <point x="228" y="472" type="line"/>
      <point x="341" y="547" type="line"/>
    </contour>
  </outline>
</glyph>
<glyph name="plus" format="1">
  <advance width="446"/>
  <unicode hex="002B"/>
  <outline>
    <contour>
      <point x="405" y="183" type="line"/>
      <point x="274" y="176" type="line"/>
      <point x="267" y="45" type="line"/>
      <point x="179" y="45" type="line"/>
      <point x="172" y="176" type="line"/>
      <point x="41" y="183" type="line"/>
      <point x="41" y="271" type="line"/>
      <point x="172" y="278" type="line"/>
      <point x="179" y="409" type="line"/>
      <point x="267" y="409" type="line"/>
      <point x="274" y="278" type="line"/>
      <point x="405" y="271" type="line"/>
    </contour>
  </outline>
</glyph>
<glyph name="comma" format="1">
  <advance width="226"/>
  <unicode hex="002C"/>
  <outline>
    <contour>
      <point x="192" y="39" type="line"/>
      <point x="89" y="-116" type="line"/>
      <point x="31" y="-94" type="line"/>
      <point x="51" y="11" type="line"/>
      <point x="38" y="138" type="line"/>
      <point x="188" y="138" type="line"/>
    </contour>
  </outline>
</glyph>
<glyph name="hyphen" format="1">
  <advance width="338"/>
  <unicode hex="002D"/>
  <unicode hex="2010"/>
  <unicode hex="2011"/>
  <outline>
    <contour>
      <point x="301" y="178" type="line"/>
      <point x="169" y="168" type="line"/>
      <point x="37" y="178" type="line"/>
      <point x="37" y="276" type="line"/>
      <point x="169" y="286" type="line"/>
      <point x="301" y="276" type="line"/>
    </contour>
  </outline>
</glyph>
<glyph name="period" format="1">
  <advance width="226"/>
  <unicode hex="002E"/>
  <outline>
    <contour>
      <point x="192" y="69" type="line"/>
      <point x="188" y="0" type="line"/>
      <point x="38" y="0" type="line"/>
      <point x="34" y="69" type="line"/>
      <point x="38" y="138" type="line"/>
      <point x="188" y="138" type="line"/>
    </contour>
  </outline>
</glyph>
<glyph name="slash" format="1">
  <advance width="423"/>
  <unicode hex="002F"/>
  <outline>
    <contour>
      <point x="381" y="585" type="line"/>
      <point x="240" y="136" type="line"/>
      <point x="93" y="-150" type="line"/>
      <point x="6" y="-130" type="line"/>
      <point x="147" y="319" type="line"/>
      <point x="294" y="605" type="line"/>
    </contour>
  </outline>
</glyph>
<glyph name="zero" format="1">
  <advance width="635"/>
  <unicode hex="0030"/>
  <outline>
    <contour>
      <point x="591" y="297" type="line"/>
      <point x="556" y="46" type="line"/>
      <point x="386" y="-5" type="line"/>
      <point x="249" y="-5" type="line"/>
      <point x="79" y="46" type="line"/>
      <point x="44" y="297" type="line"/>
      <point x="79" y="549" type="line"/>
      <point x="249" y="600" type="line"/>
      <point x="386" y="600" type="line"/>
      <point x="556" y="549" type="line"/>
    </contour>
    <contour>
      <point x="450" y="297" type="line"/>
      <point x="424" y="495" type="line"/>
      <point x="318" y="524" type="line"/>
      <point x="211" y="495" type="line"/>
      <point x="185" y="297" type="line"/>
      <point x="211" y="100" type="line"/>
      <point x="317" y="71" type="line"/>
      <point x="424" y="100" type="line"/>
    </contour>
  </outline>
</glyph>
<glyph name="one" format="1">
  <advance width="342"/>
  <unicode hex="0031"/>
  <outline>
    <contour>
      <point x="278" y="0" type="line"/>
      <point x="131" y="0" type="line"/>
      <point x="140" y="296" type="line"/>
      <point x="133" y="501" type="line"/>
      <point x="25" y="491" type="line"/>
      <point x="10" y="553" type="line"/>
      <point x="176" y="597" type="line"/>
      <point x="278" y="597" type="line"/>
      <point x="269" y="296" type="line"/>
    </contour>
  </outline>
</glyph>
<glyph name="two" format="1">
  <advance width="528"/>
  <unicode hex="0032"/>
  <outline>
    <contour>
      <point x="491" y="0" type="line"/>
      <point x="63" y="0" type="line"/>
      <point x="38" y="59" type="line"/>
      <point x="316" y="346" type="line"/>
      <point x="330" y="421" type="line"/>
      <point x="316" y="498" type="line"/>
      <point x="247" y="531" type="line"/>
      <point x="83" y="448" type="line"/>
      <point x="39" y="553" type="line"/>
      <point x="200" y="600" type="line"/>
      <point x="310" y="600" type="line"/>
      <point x="455" y="549" type="line"/>
      <point x="475" y="446" type="line"/>
      <point x="454" y="343" type="line"/>
      <point x="179" y="92" type="line"/>
      <point x="466" y="108" type="line"/>
    </contour>
  </outline>
</glyph>
<glyph name="three" format="1">
  <advance width="518"/>
  <unicode hex="0033"/>
  <outline>
    <contour>
      <point x="480" y="192" type="line"/>
      <point x="450" y="58" type="line"/>
      <point x="287" y="-5" type="line"/>
      <point x="177" y="-5" type="line"/>
      <point x="22" y="42" type="line"/>
      <point x="62" y="145" type="line"/>
      <point x="235" y="64" type="line"/>
      <point x="320" y="104" type="line"/>
      <point x="338" y="181" type="line"/>
      <point x="320" y="259" type="line"/>
      <point x="248" y="277" type="line"/>
      <point x="164" y="277" type="line"/>
      <point x="148" y="306" type="line"/>
      <point x="309" y="511" type="line"/>
      <point x="63" y="487" type="line"/>
      <point x="38" y="595" type="line"/>
      <point x="453" y="595" type="line"/>
      <point x="478" y="530" type="line"/>
      <point x="277" y="357" type="line"/>
      <point x="450" y="326" type="line"/>
    </contour>
  </outline>
</glyph>
<glyph name="four" format="1">
  <advance width="568"/>
  <unicode hex="0034"/>
  <outline>
    <contour>
      <point x="554" y="145" type="line"/>
      <point x="452" y="145" type="line"/>
      <point x="458" y="0" type="line"/>
      <point x="319" y="0" type="line"/>
      <point x="325" y="145" type="line"/>
      <point x="43" y="145" type="line"/>
      <point x="17" y="192" type="line"/>
      <point x="197" y="460" type="line"/>
      <point x="259" y="615" type="line"/>
      <point x="387" y="544" type="line"/>
      <point x="141" y="215" type="line"/>
      <point x="325" y="221" type="line"/>
      <point x="319" y="375" type="line"/>
      <point x="458" y="375" type="line"/>
      <point x="452" y="225" type="line"/>
      <point x="540" y="228" type="line"/>
    </contour>
  </outline>
</glyph>
<glyph name="five" format="1">
  <advance width="538"/>
  <unicode hex="0035"/>
  <outline>
    <contour>
      <point x="500" y="197" type="line"/>
      <point x="470" y="58" type="line"/>
      <point x="292" y="-5" type="line"/>
      <point x="182" y="-5" type="line"/>
      <point x="22" y="42" type="line"/>
      <point x="62" y="145" type="line"/>
      <point x="240" y="64" type="line"/>
      <point x="340" y="104" type="line"/>
      <point x="358" y="186" type="line"/>
      <point x="340" y="269" type="line"/>
      <point x="248" y="298" type="line"/>
      <point x="122" y="260" type="line"/>
      <point x="72" y="284" type="line"/>
      <point x="87" y="595" type="line"/>
      <point x="477" y="595" type="line"/>
      <point x="452" y="485" type="line"/>
      <point x="200" y="513" type="line"/>
      <point x="162" y="345" type="line"/>
      <point x="237" y="379" type="line"/>
      <point x="306" y="379" type="line"/>
      <point x="470" y="336" type="line"/>
    </contour>
  </outline>
</glyph>
<glyph name="six" format="1">
  <advance width="578"/>
  <unicode hex="0036"/>
  <outline>
    <contour>
      <point x="531" y="192" type="line"/>
      <point x="509" y="44" type="line"/>
      <point x="367" y="-5" type="line"/>
      <point x="217" y="-5" type="line"/>
      <point x="74" y="44" type="line"/>
      <point x="44" y="298" type="line"/>
      <point x="74" y="537" type="line"/>
      <point x="242" y="600" type="line"/>
      <point x="362" y="600" type="line"/>
      <point x="512" y="558" type="line"/>
      <point x="472" y="457" type="line"/>
      <point x="299" y="531" type="line"/>
      <point x="204" y="491" type="line"/>
      <point x="185" y="342" type="line"/>
      <point x="284" y="380" type="line"/>
      <point x="364" y="380" type="line"/>
      <point x="509" y="336" type="line"/>
    </contour>
    <contour>
      <point x="398" y="192" type="line"/>
      <point x="379" y="286" type="line"/>
      <point x="304" y="306" type="line"/>
      <point x="181" y="271" type="line"/>
      <point x="204" y="95" type="line"/>
      <point x="287" y="69" type="line"/>
      <point x="379" y="95" type="line"/>
    </contour>
  </outline>
</glyph>
<glyph name="seven" format="1">
  <advance width="483"/>
  <unicode hex="0037"/>
  <outline>
    <contour>
      <point x="459" y="523" type="line"/>
      <point x="210" y="-11" type="line"/>
      <point x="84" y="46" type="line"/>
      <point x="208" y="220" type="line"/>
      <point x="348" y="507" type="line"/>
      <point x="49" y="476" type="line"/>
      <point x="19" y="595" type="line"/>
      <point x="434" y="595" type="line"/>
    </contour>
  </outline>
</glyph>
<glyph name="eight" format="1">
  <advance width="578"/>
  <unicode hex="0038"/>
  <outline>
    <contour>
      <point x="534" y="155" type="line"/>
      <point x="517" y="48" type="line"/>
      <point x="370" y="-5" type="line"/>
      <point x="208" y="-5" type="line"/>
      <point x="61" y="48" type="line"/>
      <point x="44" y="155" type="line"/>
      <point x="71" y="259" type="line"/>
      <point x="187" y="297" type="line"/>
      <point x="86" y="336" type="line"/>
      <point x="59" y="439" type="line"/>
      <point x="76" y="547" type="line"/>
      <point x="213" y="600" type="line"/>
      <point x="365" y="600" type="line"/>
      <point x="502" y="547" type="line"/>
      <point x="519" y="439" type="line"/>
      <point x="492" y="336" type="line"/>
      <point x="391" y="297" type="line"/>
      <point x="507" y="259" type="line"/>
    </contour>
    <contour>
      <point x="381" y="432" type="line"/>
      <point x="368" y="503" type="line"/>
      <point x="289" y="524" type="line"/>
      <point x="210" y="503" type="line"/>
      <point x="197" y="432" type="line"/>
      <point x="210" y="365" type="line"/>
      <point x="289" y="332" type="line"/>
      <point x="368" y="365" type="line"/>
    </contour>
    <contour>
      <point x="397" y="162" type="line"/>
      <point x="384" y="230" type="line"/>
      <point x="289" y="263" type="line"/>
      <point x="194" y="230" type="line"/>
      <point x="181" y="162" type="line"/>
      <point x="194" y="92" type="line"/>
      <point x="289" y="71" type="line"/>
      <point x="384" y="92" type="line"/>
    </contour>
  </outline>
</glyph>
<glyph name="nine" format="1">
  <advance width="578"/>
  <unicode hex="0039"/>
  <outline>
    <contour>
      <point x="534" y="297" type="line"/>
      <point x="504" y="58" type="line"/>
      <point x="336" y="-5" type="line"/>
      <point x="216" y="-5" type="line"/>
      <point x="46" y="37" type="line"/>
      <point x="86" y="138" type="line"/>
      <point x="279" y="64" type="line"/>
      <point x="374" y="104" type="line"/>
      <point x="393" y="253" type="line"/>
      <point x="294" y="211" type="line"/>
      <point x="214" y="211" type="line"/>
      <point x="69" y="255" type="line"/>
      <point x="47" y="401" type="line"/>
      <point x="69" y="551" type="line"/>
      <point x="211" y="600" type="line"/>
      <point x="361" y="600" type="line"/>
      <point x="504" y="551" type="line"/>
    </contour>
    <contour>
      <point x="397" y="324" type="line"/>
      <point x="374" y="500" type="line"/>
      <point x="291" y="526" type="line"/>
      <point x="199" y="500" type="line"/>
      <point x="180" y="401" type="line"/>
      <point x="199" y="305" type="line"/>
      <point x="274" y="285" type="line"/>
    </contour>
  </outline>
</glyph>
<glyph name="colon" format="1">
  <advance width="226"/>
  <unicode hex="003A"/>
  <outline>
    <contour>
      <point x="192" y="306" type="line"/>
      <point x="188" y="237" type="line"/>
      <point x="38" y="237" type="line"/>
      <point x="34" y="306" type="line"/>
      <point x="38" y="375" type="line"/>
      <point x="188" y="375" type="line"/>
    </contour>
    <contour>
      <point x="192" y="69" type="line"/>
      <point x="188" y="0" type="line"/>
      <point x="38" y="0" type="line"/>
      <point x="34" y="69" type="line"/>
      <point x="38" y="138" type="line"/>
      <point x="188" y="138" type="line"/>
    </contour>
  </outline>
</glyph>
<glyph name="semicolon" format="1">
  <advance width="226"/>
  <unicode hex="003B"/>
  <outline>
    <contour>
      <point x="192" y="306" type="line"/>
      <point x="188" y="237" type="line"/>
      <point x="38" y="237" type="line"/>
      <point x="34" y="306" type="line"/>
      <point x="38" y="375" type="line"/>
      <point x="188" y="375" type="line"/>
    </contour>
    <contour>
      <point x="192" y="39" type="line"/>
      <point x="89" y="-116" type="line"/>
      <point x="31" y="-94" type="line"/>
      <point x="51" y="11" type="line"/>
      <point x="38" y="138" type="line"/>
      <point x="188" y="138" type="line"/>
    </contour>
  </outline>
</glyph>
<glyph name="less" format="1">
  <advance width="378"/>
  <unicode hex="003C"/>
  <outline>
    <contour>
      <point x="346" y="37" type="line"/>
      <point x="289" y="-5" type="line"/>
      <point x="124" y="141" type="line"/>
      <point x="42" y="189" type="line"/>
      <point x="42" y="266" type="line"/>
      <point x="124" y="314" type="line"/>
      <point x="289" y="460" type="line"/>
      <point x="346" y="418" type="line"/>
      <point x="219" y="227" type="line"/>
    </contour>
  </outline>
</glyph>
<glyph name="equal" format="1">
  <advance width="466"/>
  <unicode hex="003D"/>
  <outline>
    <contour>
      <point x="415" y="268" type="line"/>
      <point x="233" y="258" type="line"/>
      <point x="51" y="268" type="line"/>
      <point x="51" y="356" type="line"/>
      <point x="233" y="366" type="line"/>
      <point x="415" y="356" type="line"/>
    </contour>
    <contour>
      <point x="415" y="98" type="line"/>
      <point x="233" y="88" type="line"/>
      <point x="51" y="98" type="line"/>
      <point x="51" y="186" type="line"/>
      <point x="233" y="196" type="line"/>
      <point x="415" y="186" type="line"/>
    </contour>
  </outline>
</glyph>
<glyph name="greater" format="1">
  <advance width="378"/>
  <unicode hex="003E"/>
  <outline>
    <contour>
      <point x="336" y="189" type="line"/>
      <point x="254" y="141" type="line"/>
      <point x="89" y="-5" type="line"/>
      <point x="32" y="37" type="line"/>
      <point x="159" y="227" type="line"/>
      <point x="32" y="418" type="line"/>
      <point x="89" y="460" type="line"/>
      <point x="254" y="314" type="line"/>
      <point x="336" y="266" type="line"/>
    </contour>
  </outline>
</glyph>
<glyph name="question" format="1">
  <advance width="473"/>
  <unicode hex="003F"/>
  <outline>
    <contour>
      <point x="451" y="421" type="line"/>
      <point x="417" y="307" type="line"/>
      <point x="273" y="274" type="line"/>
      <point x="249" y="180" type="line"/>
      <point x="179" y="180" type="line"/>
      <point x="153" y="288" type="line"/>
      <point x="179" y="328" type="line"/>
      <point x="290" y="355" type="line"/>
      <point x="303" y="437" type="line"/>
      <point x="281" y="518" type="line"/>
      <point x="229" y="531" type="line"/>
      <point x="53" y="447" type="line"/>
      <point x="15" y="570" type="line"/>
      <point x="169" y="600" type="line"/>
      <point x="286" y="600" type="line"/>
      <point x="426" y="549" type="line"/>
    </contour>
    <contour>
      <point x="293" y="69" type="line"/>
      <point x="289" y="0" type="line"/>
      <point x="139" y="0" type="line"/>
      <point x="135" y="69" type="line"/>
      <point x="139" y="138" type="line"/>
      <point x="289" y="138" type="line"/>
    </contour>
  </outline>
</glyph>
<glyph name="at" format="1">
  <advance width="715"/>
  <unicode hex="0040"/>
  <outline>
    <contour>
      <point x="671" y="356" type="line"/>
      <point x="636" y="163" type="line"/>
      <point x="439" y="112" type="line"/>
      <point x="381" y="112" type="line"/>
      <point x="377" y="160" type="line"/>
      <point x="266" y="107" type="line"/>
      <point x="168" y="128" type="line"/>
      <point x="180" y="300" type="line"/>
      <point x="222" y="471" type="line"/>
      <point x="340" y="492" type="line"/>
      <point x="461" y="467" type="line"/>
      <point x="495" y="487" type="line"/>
      <point x="537" y="487" type="line"/>
      <point x="499" y="299" type="line"/>
      <point x="482" y="160" type="line"/>
      <point x="600" y="188" type="line"/>
      <point x="630" y="354" type="line"/>
      <point x="600" y="520" type="line"/>
      <point x="421" y="563" type="line"/>
      <point x="294" y="563" type="line"/>
      <point x="115" y="520" type="line"/>
      <point x="85" y="297" type="line"/>
      <point x="115" y="75" type="line"/>
      <point x="294" y="32" type="line"/>
      <point x="421" y="32" type="line"/>
      <point x="625" y="84" type="line"/>
      <point x="636" y="46" type="line"/>
      <point x="426" y="-5" type="line"/>
      <point x="289" y="-5" type="line"/>
      <point x="79" y="46" type="line"/>
      <point x="44" y="297" type="line"/>
      <point x="79" y="549" type="line"/>
      <point x="289" y="600" type="line"/>
      <point x="426" y="600" type="line"/>
      <point x="636" y="549" type="line"/>
    </contour>
    <contour>
      <point x="411" y="422" type="line"/>
      <point x="320" y="410" type="line"/>
      <point x="291" y="300" type="line"/>
      <point x="284" y="178" type="line"/>
      <point x="380" y="225" type="line"/>
    </contour>
  </outline>
</glyph>
<glyph name="A" format="1">
  <advance width="621"/>
  <unicode hex="0041"/>
  <outline>
    <contour>
      <point x="595" y="36" type="line"/>
      <point x="441" y="-11" type="line"/>
      <point x="406" y="114" type="line"/>
      <point x="162" y="114" type="line"/>
      <point x="124" y="-11" type="line"/>
      <point x="26" y="21" type="line"/>
      <point x="143" y="321" type="line"/>
      <point x="237" y="597" type="line"/>
      <point x="380" y="597" type="line"/>
      <point x="473" y="328" type="line"/>
    </contour>
    <contour>
      <point x="382" y="202" type="line"/>
      <point x="290" y="479" type="line"/>
      <point x="188" y="202" type="line"/>
    </contour>
  </outline>
</glyph>
<glyph name="B" format="1">
  <advance width="579"/>
  <unicode hex="0042"/>
  <outline>
    <contour>
      <point x="543" y="160" type="line"/>
      <point x="523" y="53" type="line"/>
      <point x="364" y="0" type="line"/>
      <point x="57" y="0" type="line"/>
      <point x="65" y="297" type="line"/>
      <point x="57" y="595" type="line"/>
      <point x="350" y="595" type="line"/>
      <point x="509" y="542" type="line"/>
      <point x="529" y="434" type="line"/>
      <point x="500" y="341" type="line"/>
      <point x="382" y="297" type="line"/>
      <point x="514" y="254" type="line"/>
    </contour>
    <contour>
      <point x="386" y="428" type="line"/>
      <point x="375" y="494" type="line"/>
      <point x="313" y="515" type="line"/>
      <point x="203" y="515" type="line"/>
      <point x="197" y="342" type="line"/>
      <point x="309" y="342" type="line"/>
      <point x="375" y="366" type="line"/>
    </contour>
    <contour>
      <point x="400" y="166" type="line"/>
      <point x="389" y="229" type="line"/>
      <point x="322" y="253" type="line"/>
      <point x="197" y="253" type="line"/>
      <point x="203" y="80" type="line"/>
      <point x="327" y="80" type="line"/>
      <point x="389" y="101" type="line"/>
    </contour>
  </outline>
</glyph>
<glyph name="C" format="1">
  <advance width="563"/>
  <unicode hex="0043"/>
  <outline>
    <contour>
      <point x="522" y="570" type="line"/>
      <point x="488" y="447" type="line"/>
      <point x="322" y="521" type="line"/>
      <point x="204" y="497" type="line"/>
      <point x="178" y="297" type="line"/>
      <point x="204" y="98" type="line"/>
      <point x="321" y="74" type="line"/>
      <point x="479" y="148" type="line"/>
      <point x="517" y="42" type="line"/>
      <point x="359" y="-5" type="line"/>
      <point x="260" y="-5" type="line"/>
      <point x="71" y="46" type="line"/>
      <point x="40" y="297" type="line"/>
      <point x="71" y="549" type="line"/>
      <point x="260" y="600" type="line"/>
      <point x="365" y="600" type="line"/>
    </contour>
  </outline>
</glyph>
<glyph name="D" format="1">
  <advance width="626"/>
  <unicode hex="0044"/>
  <outline>
    <contour>
      <point x="587" y="297" type="line"/>
      <point x="555" y="51" type="line"/>
      <point x="366" y="0" type="line"/>
      <point x="57" y="0" type="line"/>
      <point x="65" y="297" type="line"/>
      <point x="57" y="595" type="line"/>
      <point x="366" y="595" type="line"/>
      <point x="555" y="544" type="line"/>
    </contour>
    <contour>
      <point x="448" y="297" type="line"/>
      <point x="422" y="494" type="line"/>
      <point x="309" y="511" type="line"/>
      <point x="203" y="511" type="line"/>
      <point x="197" y="297" type="line"/>
      <point x="203" y="84" type="line"/>
      <point x="310" y="84" type="line"/>
      <point x="422" y="101" type="line"/>
    </contour>
  </outline>
</glyph>
<glyph name="E" format="1">
  <advance width="496"/>
  <unicode hex="0045"/>
  <outline>
    <contour>
      <point x="466" y="0" type="line"/>
      <point x="57" y="0" type="line"/>
      <point x="65" y="297" type="line"/>
      <point x="57" y="595" type="line"/>
      <point x="463" y="595" type="line"/>
      <point x="440" y="484" type="line"/>
      <point x="202" y="522" type="line"/>
      <point x="198" y="341" type="line"/>
      <point x="382" y="357" type="line"/>
      <point x="382" y="248" type="line"/>
      <point x="198" y="265" type="line"/>
      <point x="202" y="73" type="line"/>
      <point x="444" y="111" type="line"/>
    </contour>
  </outline>
</glyph>
<glyph name="F" format="1">
  <advance width="466"/>
  <unicode hex="0046"/>
  <outline>
    <contour>
      <point x="445" y="595" type="line"/>
      <point x="422" y="484" type="line"/>
      <point x="202" y="521" type="line"/>
      <point x="198" y="322" type="line"/>
      <point x="364" y="337" type="line"/>
      <point x="364" y="228" type="line"/>
      <point x="198" y="244" type="line"/>
      <point x="203" y="0" type="line"/>
      <point x="57" y="0" type="line"/>
      <point x="65" y="297" type="line"/>
      <point x="57" y="595" type="line"/>
    </contour>
  </outline>
</glyph>
<glyph name="G" format="1">
  <advance width="601"/>
  <unicode hex="0047"/>
  <outline>
    <contour>
      <point x="558" y="42" type="line"/>
      <point x="370" y="-5" type="line"/>
      <point x="260" y="-5" type="line"/>
      <point x="71" y="46" type="line"/>
      <point x="40" y="297" type="line"/>
      <point x="71" y="549" type="line"/>
      <point x="260" y="600" type="line"/>
      <point x="370" y="600" type="line"/>
      <point x="526" y="569" type="line"/>
      <point x="491" y="446" type="line"/>
      <point x="322" y="521" type="line"/>
      <point x="204" y="497" type="line"/>
      <point x="178" y="297" type="line"/>
      <point x="204" y="98" type="line"/>
      <point x="321" y="74" type="line"/>
      <point x="415" y="94" type="line"/>
      <point x="418" y="187" type="line"/>
      <point x="410" y="314" type="line"/>
      <point x="558" y="314" type="line"/>
      <point x="553" y="187" type="line"/>
    </contour>
  </outline>
</glyph>
<glyph name="H" format="1">
  <advance width="645"/>
  <unicode hex="0048"/>
  <outline>
    <contour>
      <point x="589" y="0" type="line"/>
      <point x="440" y="0" type="line"/>
      <point x="447" y="248" type="line"/>
      <point x="198" y="248" type="line"/>
      <point x="205" y="0" type="line"/>
      <point x="57" y="0" type="line"/>
      <point x="65" y="297" type="line"/>
      <point x="57" y="595" type="line"/>
      <point x="205" y="595" type="line"/>
      <point x="198" y="336" type="line"/>
      <point x="447" y="336" type="line"/>
      <point x="440" y="595" type="line"/>
      <point x="589" y="595" type="line"/>
      <point x="580" y="297" type="line"/>
    </contour>
  </outline>
</glyph>
<glyph name="I" format="1">
  <advance width="278"/>
  <unicode hex="0049"/>
  <outline>
    <contour>
      <point x="213" y="0" type="line"/>
      <point x="65" y="0" type="line"/>
      <point x="73" y="297" type="line"/>
      <point x="65" y="595" type="line"/>
      <point x="213" y="595" type="line"/>
      <point x="205" y="297" type="line"/>
    </contour>
  </outline>
</glyph>
<glyph name="J" format="1">
  <advance width="278"/>
  <unicode hex="004A"/>
  <outline>
    <contour>
      <point x="213" y="595" type="line"/>
      <point x="205" y="287" type="line"/>
      <point x="212" y="-110" type="line"/>
      <point x="67" y="-140" type="line"/>
      <point x="-45" y="-130" type="line"/>
      <point x="-45" y="-36" type="line"/>
      <point x="65" y="-56" type="line"/>
      <point x="73" y="287" type="line"/>
      <point x="65" y="595" type="line"/>
    </contour>
  </outline>
</glyph>
<glyph name="K" format="1">
  <advance width="576"/>
  <unicode hex="004B"/>
  <outline>
    <contour>
      <point x="563" y="73" type="line"/>
      <point x="443" y="-17" type="line"/>
      <point x="239" y="265" type="line"/>
      <point x="199" y="228" type="line"/>
      <point x="205" y="0" type="line"/>
      <point x="57" y="0" type="line"/>
      <point x="65" y="297" type="line"/>
      <point x="57" y="595" type="line"/>
      <point x="205" y="595" type="line"/>
      <point x="197" y="312" type="line"/>
      <point x="330" y="452" type="line"/>
      <point x="450" y="612" type="line"/>
      <point x="537" y="538" type="line"/>
      <point x="336" y="354" type="line"/>
    </contour>
  </outline>
</glyph>
<glyph name="L" format="1">
  <advance width="466"/>
  <unicode hex="004C"/>
  <outline>
    <contour>
      <point x="445" y="0" type="line"/>
      <point x="57" y="0" type="line"/>
      <point x="65" y="297" type="line"/>
      <point x="57" y="595" type="line"/>
      <point x="203" y="595" type="line"/>
      <point x="197" y="297" type="line"/>
      <point x="202" y="73" type="line"/>
      <point x="422" y="111" type="line"/>
    </contour>
  </outline>
</glyph>
<glyph name="M" format="1">
  <advance width="766"/>
  <unicode hex="004D"/>
  <outline>
    <contour>
      <point x="709" y="0" type="line"/>
      <point x="561" y="0" type="line"/>
      <point x="571" y="396" type="line"/>
      <point x="412" y="0" type="line"/>
      <point x="319" y="0" type="line"/>
      <point x="142" y="396" type="line"/>
      <point x="165" y="0" type="line"/>
      <point x="57" y="0" type="line"/>
      <point x="65" y="297" type="line"/>
      <point x="57" y="595" type="line"/>
      <point x="210" y="595" type="line"/>
      <point x="293" y="380" type="line"/>
      <point x="392" y="158" type="line"/>
      <point x="478" y="375" type="line"/>
      <point x="553" y="595" type="line"/>
      <point x="709" y="595" type="line"/>
      <point x="701" y="297" type="line"/>
    </contour>
  </outline>
</glyph>
<glyph name="N" format="1">
  <advance width="619"/>
  <unicode hex="004E"/>
  <outline>
    <contour>
      <point x="562" y="0" type="line"/>
      <point x="486" y="0" type="line"/>
      <point x="147" y="379" type="line"/>
      <point x="165" y="0" type="line"/>
      <point x="57" y="0" type="line"/>
      <point x="65" y="297" type="line"/>
      <point x="57" y="595" type="line"/>
      <point x="159" y="595" type="line"/>
      <point x="472" y="241" type="line"/>
      <point x="454" y="595" type="line"/>
      <point x="562" y="595" type="line"/>
      <point x="553" y="297" type="line"/>
    </contour>
  </outline>
</glyph>
<glyph name="O" format="1">
  <advance width="643"/>
  <unicode hex="004F"/>
  <outline>
    <contour>
      <point x="604" y="297" type="line"/>
      <point x="572" y="46" type="line"/>
      <point x="383" y="-5" type="line"/>
      <point x="260" y="-5" type="line"/>
      <point x="71" y="46" type="line"/>
      <point x="40" y="297" type="line"/>
      <point x="71" y="549" type="line"/>
      <point x="260" y="600" type="line"/>
      <point x="383" y="600" type="line"/>
      <point x="572" y="549" type="line"/>
    </contour>
    <contour>
      <point x="465" y="297" type="line"/>
      <point x="439" y="497" type="line"/>
      <point x="322" y="521" type="line"/>
      <point x="204" y="497" type="line"/>
      <point x="178" y="297" type="line"/>
      <point x="204" y="98" type="line"/>
      <point x="321" y="74" type="line"/>
      <point x="439" y="98" type="line"/>
    </contour>
  </outline>
</glyph>
<glyph name="P" format="1">
  <advance width="556"/>
  <unicode hex="0050"/>
  <outline>
    <contour>
      <point x="534" y="401" type="line"/>
      <point x="514" y="261" type="line"/>
      <point x="355" y="208" type="line"/>
      <point x="200" y="208" type="line"/>
      <point x="206" y="0" type="line"/>
      <point x="57" y="0" type="line"/>
      <point x="65" y="297" type="line"/>
      <point x="57" y="595" type="line"/>
      <point x="355" y="595" type="line"/>
      <point x="514" y="542" type="line"/>
    </contour>
    <contour>
      <point x="391" y="401" type="line"/>
      <point x="380" y="490" type="line"/>
      <point x="322" y="511" type="line"/>
      <point x="203" y="511" type="line"/>
      <point x="197" y="292" type="line"/>
      <point x="322" y="292" type="line"/>
      <point x="380" y="313" type="line"/>
    </contour>
  </outline>
</glyph>
<glyph name="Q" format="1">
  <advance width="643"/>
  <unicode hex="0051"/>
  <outline>
    <contour>
      <point x="604" y="297" type="line"/>
      <point x="572" y="46" type="line"/>
      <point x="405" y="1" type="line"/>
      <point x="436" y="-57" type="line"/>
      <point x="569" y="-57" type="line"/>
      <point x="580" y="-119" type="line"/>
      <point x="397" y="-144" type="line"/>
      <point x="286" y="-97" type="line"/>
      <point x="238" y="1" type="line"/>
      <point x="71" y="46" type="line"/>
      <point x="40" y="297" type="line"/>
      <point x="71" y="549" type="line"/>
      <point x="260" y="600" type="line"/>
      <point x="383" y="600" type="line"/>
      <point x="572" y="549" type="line"/>
    </contour>
    <contour>
      <point x="465" y="297" type="line"/>
      <point x="439" y="497" type="line"/>
      <point x="322" y="521" type="line"/>
      <point x="204" y="497" type="line"/>
      <point x="178" y="297" type="line"/>
      <point x="204" y="98" type="line"/>
      <point x="321" y="74" type="line"/>
      <point x="439" y="98" type="line"/>
    </contour>
  </outline>
</glyph>
<glyph name="R" format="1">
  <advance width="586"/>
  <unicode hex="0052"/>
  <outline>
    <contour>
      <point x="575" y="69" type="line"/>
      <point x="467" y="-14" type="line"/>
      <point x="222" y="232" type="line"/>
      <point x="200" y="232" type="line"/>
      <point x="206" y="0" type="line"/>
      <point x="57" y="0" type="line"/>
      <point x="65" y="297" type="line"/>
      <point x="57" y="595" type="line"/>
      <point x="355" y="595" type="line"/>
      <point x="514" y="542" type="line"/>
      <point x="534" y="413" type="line"/>
      <point x="514" y="285" type="line"/>
      <point x="378" y="240" type="line"/>
    </contour>
    <contour>
      <point x="391" y="410" type="line"/>
      <point x="380" y="490" type="line"/>
      <point x="322" y="511" type="line"/>
      <point x="203" y="511" type="line"/>
      <point x="197" y="310" type="line"/>
      <point x="322" y="310" type="line"/>
      <point x="380" y="331" type="line"/>
    </contour>
  </outline>
</glyph>
<glyph name="S" format="1">
  <advance width="505"/>
  <unicode hex="0053"/>
  <outline>
    <contour>
      <point x="456" y="578" type="line"/>
      <point x="428" y="460" type="line"/>
      <point x="254" y="526" type="line"/>
      <point x="189" y="508" type="line"/>
      <point x="189" y="431" type="line"/>
      <point x="451" y="249" type="line"/>
      <point x="451" y="43" type="line"/>
      <point x="310" y="-5" type="line"/>
      <point x="195" y="-5" type="line"/>
      <point x="39" y="33" type="line"/>
      <point x="67" y="147" type="line"/>
      <point x="238" y="69" type="line"/>
      <point x="322" y="87" type="line"/>
      <point x="322" y="165" type="line"/>
      <point x="60" y="347" type="line"/>
      <point x="60" y="552" type="line"/>
      <point x="199" y="600" type="line"/>
      <point x="307" y="600" type="line"/>
    </contour>
  </outline>
</glyph>
<glyph name="T" format="1">
  <advance width="561"/>
  <unicode hex="0054"/>
  <outline>
    <contour>
      <point x="539" y="595" type="line"/>
      <point x="516" y="484" type="line"/>
      <point x="353" y="517" type="line"/>
      <point x="346" y="297" type="line"/>
      <point x="355" y="0" type="line"/>
      <point x="206" y="0" type="line"/>
      <point x="214" y="297" type="line"/>
      <point x="208" y="517" type="line"/>
      <point x="45" y="484" type="line"/>
      <point x="22" y="595" type="line"/>
    </contour>
  </outline>
</glyph>
<glyph name="U" format="1">
  <advance width="626"/>
  <unicode hex="0055"/>
  <outline>
    <contour>
      <point x="569" y="46" type="line"/>
      <point x="380" y="-5" type="line"/>
      <point x="247" y="-5" type="line"/>
      <point x="58" y="46" type="line"/>
      <point x="65" y="297" type="line"/>
      <point x="58" y="595" type="line"/>
      <point x="205" y="595" type="line"/>
      <point x="197" y="297" type="line"/>
      <point x="200" y="96" type="line"/>
      <point x="313" y="79" type="line"/>
      <point x="427" y="96" type="line"/>
      <point x="429" y="297" type="line"/>
      <point x="421" y="595" type="line"/>
      <point x="569" y="595" type="line"/>
      <point x="562" y="297" type="line"/>
    </contour>
  </outline>
</glyph>
<glyph name="V" format="1">
  <advance width="621"/>
  <unicode hex="0056"/>
  <outline>
    <contour>
      <point x="595" y="574" type="line"/>
      <point x="478" y="274" type="line"/>
      <point x="384" y="-2" type="line"/>
      <point x="241" y="-2" type="line"/>
      <point x="148" y="267" type="line"/>
      <point x="26" y="559" type="line"/>
      <point x="180" y="606" type="line"/>
      <point x="244" y="378" type="line"/>
      <point x="331" y="116" type="line"/>
      <point x="423" y="377" type="line"/>
      <point x="492" y="606" type="line"/>
    </contour>
  </outline>
</glyph>
<glyph name="W" format="1">
  <advance width="900"/>
  <unicode hex="0057"/>
  <outline>
    <contour>
      <point x="874" y="574" type="line"/>
      <point x="763" y="274" type="line"/>
      <point x="676" y="-2" type="line"/>
      <point x="533" y="-2" type="line"/>
      <point x="450" y="251" type="line"/>
      <point x="371" y="-2" type="line"/>
      <point x="228" y="-2" type="line"/>
      <point x="142" y="267" type="line"/>
      <point x="26" y="559" type="line"/>
      <point x="180" y="606" type="line"/>
      <point x="238" y="378" type="line"/>
      <point x="322" y="116" type="line"/>
      <point x="406" y="369" type="line"/>
      <point x="331" y="559" type="line"/>
      <point x="489" y="606" type="line"/>
      <point x="547" y="378" type="line"/>
      <point x="626" y="116" type="line"/>
      <point x="713" y="377" type="line"/>
      <point x="775" y="606" type="line"/>
    </contour>
  </outline>
</glyph>
<glyph name="X" format="1">
  <advance width="585"/>
  <unicode hex="0058"/>
  <outline>
    <contour>
      <point x="563" y="83" type="line"/>
      <point x="436" y="-11" type="line"/>
      <point x="280" y="220" type="line"/>
      <point x="112" y="-11" type="line"/>
      <point x="25" y="39" type="line"/>
      <point x="231" y="287" type="line"/>
      <point x="36" y="512" type="line"/>
      <point x="163" y="606" type="line"/>
      <point x="308" y="389" type="line"/>
      <point x="466" y="606" type="line"/>
      <point x="553" y="556" type="line"/>
      <point x="357" y="322" type="line"/>
    </contour>
  </outline>
</glyph>
<glyph name="Y" format="1">
  <advance width="604"/>
  <unicode hex="0059"/>
  <outline>
    <contour>
      <point x="587" y="552" type="line"/>
      <point x="373" y="228" type="line"/>
      <point x="381" y="0" type="line"/>
      <point x="232" y="0" type="line"/>
      <point x="238" y="220" type="line"/>
      <point x="17" y="520" type="line"/>
      <point x="141" y="606" type="line"/>
      <point x="219" y="477" type="line"/>
      <point x="331" y="314" type="line"/>
      <point x="432" y="484" type="line"/>
      <point x="498" y="606" type="line"/>
    </contour>
  </outline>
</glyph>
<glyph name="Z" format="1">
  <advance width="544"/>
  <unicode hex="005A"/>
  <outline>
    <contour>
      <point x="501" y="0" type="line"/>
      <point x="53" y="0" type="line"/>
      <point x="35" y="58" type="line"/>
      <point x="334" y="523" type="line"/>
      <point x="82" y="484" type="line"/>
      <point x="60" y="595" type="line"/>
      <point x="483" y="595" type="line"/>
      <point x="501" y="532" type="line"/>
      <point x="195" y="71" type="line"/>
      <point x="480" y="111" type="line"/>
    </contour>
  </outline>
</glyph>
<glyph name="bracketleft" format="1">
  <advance width="435"/>
  <unicode hex="005B"/>
  <outline>
    <contour>
      <point x="405" y="-140" type="line"/>
      <point x="63" y="-140" type="line"/>
      <point x="72" y="227" type="line"/>
      <point x="63" y="595" type="line"/>
      <point x="401" y="595" type="line"/>
      <point x="381" y="504" type="line"/>
      <point x="212" y="522" type="line"/>
      <point x="206" y="227" type="line"/>
      <point x="212" y="-67" type="line"/>
      <point x="385" y="-49" type="line"/>
    </contour>
  </outline>
</glyph>
<glyph name="backslash" format="1">
  <advance width="423"/>
  <unicode hex="005C"/>
  <outline>
    <contour>
      <point x="417" y="-130" type="line"/>
      <point x="330" y="-150" type="line"/>
      <point x="183" y="136" type="line"/>
      <point x="42" y="585" type="line"/>
      <point x="129" y="605" type="line"/>
      <point x="276" y="319" type="line"/>
    </contour>
  </outline>
</glyph>
<glyph name="bracketright" format="1">
  <advance width="435"/>
  <unicode hex="005D"/>
  <outline>
    <contour>
      <point x="372" y="-140" type="line"/>
      <point x="30" y="-140" type="line"/>
      <point x="50" y="-49" type="line"/>
      <point x="223" y="-67" type="line"/>
      <point x="229" y="227" type="line"/>
      <point x="223" y="522" type="line"/>
      <point x="54" y="504" type="line"/>
      <point x="34" y="595" type="line"/>
      <point x="372" y="595" type="line"/>
      <point x="363" y="227" type="line"/>
    </contour>
  </outline>
</glyph>
<glyph name="asciicircum" format="1">
  <advance width="488"/>
  <unicode hex="005E"/>
  <outline>
    <contour>
      <point x="435" y="439" type="line"/>
      <point x="397" y="382" type="line"/>
      <point x="244" y="446" type="line"/>
      <point x="91" y="382" type="line"/>
      <point x="53" y="439" type="line"/>
      <point x="139" y="511" type="line"/>
      <point x="197" y="595" type="line"/>
      <point x="291" y="595" type="line"/>
      <point x="349" y="511" type="line"/>
    </contour>
  </outline>
</glyph>
<glyph name="underscore" format="1">
  <advance width="488"/>
  <unicode hex="005F"/>
  <outline>
    <contour>
      <point x="488" y="-140" type="line"/>
      <point x="0" y="-140" type="line"/>
      <point x="0" y="-57" type="line"/>
      <point x="488" y="-57" type="line"/>
    </contour>
  </outline>
</glyph>
<glyph name="grave" format="1">
  <advance width="438"/>
  <unicode hex="0060"/>
  <outline>
    <contour>
      <point x="330" y="448" type="line"/>
      <point x="311" y="404" type="line"/>
      <point x="146" y="442" type="line"/>
      <point x="101" y="489" type="line"/>
      <point x="194" y="568" type="line"/>
      <point x="254" y="498" type="line"/>
    </contour>
  </outline>
</glyph>
<glyph name="a" format="1">
  <advance width="442"/>
  <unicode hex="0061"/>
  <outline>
    <contour>
      <point x="398" y="0" type="line"/>
      <point x="253" y="0" type="line"/>
      <point x="254" y="31" type="line"/>
      <point x="178" y="-6" type="line"/>
      <point x="48" y="24" type="line"/>
      <point x="33" y="119" type="line"/>
      <point x="48" y="215" type="line"/>
      <point x="183" y="245" type="line"/>
      <point x="261" y="219" type="line"/>
      <point x="262" y="303" type="line"/>
      <point x="223" y="318" type="line"/>
      <point x="192" y="318" type="line"/>
      <point x="64" y="285" type="line"/>
      <point x="51" y="369" type="line"/>
      <point x="166" y="380" type="line"/>
      <point x="269" y="380" type="line"/>
      <point x="398" y="348" type="line"/>
      <point x="392" y="187" type="line"/>
    </contour>
    <contour>
      <point x="259" y="167" type="line"/>
      <point x="211" y="178" type="line"/>
      <point x="167" y="169" type="line"/>
      <point x="160" y="122" type="line"/>
      <point x="167" y="75" type="line"/>
      <point x="207" y="68" type="line"/>
      <point x="257" y="85" type="line"/>
    </contour>
  </outline>
</glyph>
<glyph name="b" format="1">
  <advance width="459"/>
  <unicode hex="0062"/>
  <outline>
    <contour>
      <point x="417" y="188" type="line"/>
      <point x="402" y="16" type="line"/>
      <point x="267" y="-5" type="line"/>
      <point x="182" y="31" type="line"/>
      <point x="183" y="0" type="line"/>
      <point x="42" y="0" type="line"/>
      <point x="52" y="328" type="line"/>
      <point x="42" y="750" type="line"/>
      <point x="187" y="750" type="line"/>
      <point x="177" y="345" type="line"/>
      <point x="267" y="380" type="line"/>
      <point x="402" y="359" type="line"/>
    </contour>
    <contour>
      <point x="286" y="188" type="line"/>
      <point x="275" y="298" type="line"/>
      <point x="230" y="306" type="line"/>
      <point x="177" y="289" type="line"/>
      <point x="181" y="85" type="line"/>
      <point x="230" y="69" type="line"/>
      <point x="275" y="77" type="line"/>
    </contour>
  </outline>
</glyph>
<glyph name="c" format="1">
  <advance width="370"/>
  <unicode hex="0063"/>
  <outline>
    <contour>
      <point x="339" y="6" type="line"/>
      <point x="260" y="-5" type="line"/>
      <point x="185" y="-5" type="line"/>
      <point x="50" y="20" type="line"/>
      <point x="35" y="188" type="line"/>
      <point x="50" y="355" type="line"/>
      <point x="185" y="380" type="line"/>
      <point x="260" y="380" type="line"/>
      <point x="339" y="369" type="line"/>
      <point x="325" y="285" type="line"/>
      <point x="223" y="318" type="line"/>
      <point x="178" y="312" type="line"/>
      <point x="166" y="188" type="line"/>
      <point x="178" y="64" type="line"/>
      <point x="223" y="57" type="line"/>
      <point x="320" y="82" type="line"/>
    </contour>
  </outline>
</glyph>
<glyph name="d" format="1">
  <advance width="459"/>
  <unicode hex="0064"/>
  <outline>
    <contour>
      <point x="413" y="0" type="line"/>
      <point x="272" y="0" type="line"/>
      <point x="273" y="31" type="line"/>
      <point x="188" y="-5" type="line"/>
      <point x="53" y="16" type="line"/>
      <point x="38" y="188" type="line"/>
      <point x="53" y="359" type="line"/>
      <point x="188" y="380" type="line"/>
      <point x="278" y="345" type="line"/>
      <point x="268" y="750" type="line"/>
      <point x="413" y="750" type="line"/>
      <point x="403" y="328" type="line"/>
    </contour>
    <contour>
      <point x="278" y="289" type="line"/>
      <point x="225" y="306" type="line"/>
      <point x="180" y="298" type="line"/>
      <point x="169" y="188" type="line"/>
      <point x="180" y="77" type="line"/>
      <point x="225" y="69" type="line"/>
      <point x="274" y="85" type="line"/>
    </contour>
  </outline>
</glyph>
<glyph name="e" format="1">
  <advance width="401"/>
  <unicode hex="0065"/>
  <outline>
    <contour>
      <point x="371" y="199" type="line"/>
      <point x="169" y="148" type="line"/>
      <point x="177" y="63" type="line"/>
      <point x="229" y="56" type="line"/>
      <point x="345" y="83" type="line"/>
      <point x="364" y="6" type="line"/>
      <point x="273" y="-5" type="line"/>
      <point x="185" y="-5" type="line"/>
      <point x="50" y="20" type="line"/>
      <point x="35" y="188" type="line"/>
      <point x="50" y="355" type="line"/>
      <point x="185" y="380" type="line"/>
      <point x="223" y="380" type="line"/>
      <point x="358" y="356" type="line"/>
    </contour>
    <contour>
      <point x="239" y="219" type="line"/>
      <point x="233" y="313" type="line"/>
      <point x="204" y="319" type="line"/>
      <point x="175" y="313" type="line"/>
      <point x="168" y="201" type="line"/>
    </contour>
  </outline>
</glyph>
<glyph name="f" format="1">
  <advance width="271"/>
  <unicode hex="0066"/>
  <outline>
    <contour>
      <point x="283" y="665" type="line"/>
      <point x="195" y="681" type="line"/>
      <point x="187" y="380" type="line"/>
      <point x="258" y="375" type="line"/>
      <point x="258" y="312" type="line"/>
      <point x="187" y="307" type="line"/>
      <point x="196" y="0" type="line"/>
      <point x="51" y="0" type="line"/>
      <point x="60" y="308" type="line"/>
      <point x="26" y="312" type="line"/>
      <point x="26" y="375" type="line"/>
      <point x="60" y="379" type="line"/>
      <point x="51" y="730" type="line"/>
      <point x="201" y="750" type="line"/>
      <point x="283" y="744" type="line"/>
    </contour>
  </outline>
</glyph>
<glyph name="g" format="1">
  <advance width="425"/>
  <unicode hex="0067"/>
  <outline>
    <contour>
      <point x="414" y="447" type="line"/>
      <point x="341" y="358" type="line"/>
      <point x="374" y="351" type="line"/>
      <point x="389" y="235" type="line"/>
      <point x="374" y="119" type="line"/>
      <point x="244" y="89" type="line"/>
      <point x="194" y="89" type="line"/>
      <point x="176" y="64" type="line"/>
      <point x="382" y="25" type="line"/>
      <point x="394" y="-42" type="line"/>
      <point x="382" y="-113" type="line"/>
      <point x="253" y="-140" type="line"/>
      <point x="131" y="-140" type="line"/>
      <point x="28" y="-128" type="line"/>
      <point x="42" y="-41" type="line"/>
      <point x="169" y="-77" type="line"/>
      <point x="250" y="-71" type="line"/>
      <point x="257" y="-43" type="line"/>
      <point x="250" y="-21" type="line"/>
      <point x="84" y="11" type="line"/>
      <point x="84" y="64" type="line"/>
      <point x="111" y="104" type="line"/>
      <point x="45" y="119" type="line"/>
      <point x="30" y="235" type="line"/>
      <point x="45" y="351" type="line"/>
      <point x="175" y="380" type="line"/>
      <point x="244" y="380" type="line"/>
      <point x="263" y="376" type="line"/>
      <point x="328" y="495" type="line"/>
    </contour>
    <contour>
      <point x="266" y="235" type="line"/>
      <point x="257" y="313" type="line"/>
      <point x="210" y="319" type="line"/>
      <point x="162" y="313" type="line"/>
      <point x="153" y="235" type="line"/>
      <point x="162" y="158" type="line"/>
      <point x="210" y="151" type="line"/>
      <point x="257" y="158" type="line"/>
    </contour>
  </outline>
</glyph>
<glyph name="h" format="1">
  <advance width="460"/>
  <unicode hex="0068"/>
  <outline>
    <contour>
      <point x="418" y="0" type="line"/>
      <point x="274" y="0" type="line"/>
      <point x="282" y="188" type="line"/>
      <point x="277" y="300" type="line"/>
      <point x="230" y="306" type="line"/>
      <point x="177" y="289" type="line"/>
      <point x="186" y="0" type="line"/>
      <point x="42" y="0" type="line"/>
      <point x="52" y="328" type="line"/>
      <point x="42" y="750" type="line"/>
      <point x="187" y="750" type="line"/>
      <point x="177" y="345" type="line"/>
      <point x="267" y="380" type="line"/>
      <point x="417" y="361" type="line"/>
      <point x="410" y="186" type="line"/>
    </contour>
  </outline>
</glyph>
<glyph name="i" format="1">
  <advance width="235"/>
  <unicode hex="0069"/>
  <outline>
    <contour>
      <point x="191" y="562" type="line"/>
      <point x="187" y="499" type="line"/>
      <point x="51" y="499" type="line"/>
      <point x="47" y="562" type="line"/>
      <point x="51" y="625" type="line"/>
      <point x="187" y="625" type="line"/>
    </contour>
    <contour>
      <point x="191" y="0" type="line"/>
      <point x="47" y="0" type="line"/>
      <point x="55" y="188" type="line"/>
      <point x="47" y="375" type="line"/>
      <point x="191" y="375" type="line"/>
      <point x="183" y="188" type="line"/>
    </contour>
  </outline>
</glyph>
<glyph name="j" format="1">
  <advance width="235"/>
  <unicode hex="006A"/>
  <outline>
    <contour>
      <point x="191" y="562" type="line"/>
      <point x="187" y="499" type="line"/>
      <point x="51" y="499" type="line"/>
      <point x="47" y="562" type="line"/>
      <point x="51" y="625" type="line"/>
      <point x="187" y="625" type="line"/>
    </contour>
    <contour>
      <point x="191" y="-120" type="line"/>
      <point x="41" y="-140" type="line"/>
      <point x="-41" y="-133" type="line"/>
      <point x="-41" y="-55" type="line"/>
      <point x="51" y="-71" type="line"/>
      <point x="57" y="149" type="line"/>
      <point x="47" y="375" type="line"/>
      <point x="191" y="375" type="line"/>
      <point x="181" y="149" type="line"/>
    </contour>
  </outline>
</glyph>
<glyph name="k" format="1">
  <advance width="444"/>
  <unicode hex="006B"/>
  <outline>
    <contour>
      <point x="442" y="63" type="line"/>
      <point x="327" y="-13" type="line"/>
      <point x="214" y="145" type="line"/>
      <point x="183" y="108" type="line"/>
      <point x="187" y="0" type="line"/>
      <point x="42" y="0" type="line"/>
      <point x="52" y="328" type="line"/>
      <point x="42" y="750" type="line"/>
      <point x="191" y="750" type="line"/>
      <point x="178" y="328" type="line"/>
      <point x="181" y="197" type="line"/>
      <point x="251" y="284" type="line"/>
      <point x="315" y="388" type="line"/>
      <point x="390" y="348" type="line"/>
      <point x="297" y="241" type="line"/>
    </contour>
  </outline>
</glyph>
<glyph name="l" format="1">
  <advance width="235"/>
  <unicode hex="006C"/>
  <outline>
    <contour>
      <point x="190" y="0" type="line"/>
      <point x="45" y="0" type="line"/>
      <point x="55" y="328" type="line"/>
      <point x="45" y="750" type="line"/>
      <point x="190" y="750" type="line"/>
      <point x="180" y="328" type="line"/>
    </contour>
  </outline>
</glyph>
<glyph name="m" format="1">
  <advance width="694"/>
  <unicode hex="006D"/>
  <outline>
    <contour>
      <point x="652" y="0" type="line"/>
      <point x="508" y="0" type="line"/>
      <point x="516" y="188" type="line"/>
      <point x="511" y="300" type="line"/>
      <point x="464" y="306" type="line"/>
      <point x="416" y="290" type="line"/>
      <point x="412" y="188" type="line"/>
      <point x="420" y="0" type="line"/>
      <point x="276" y="0" type="line"/>
      <point x="284" y="188" type="line"/>
      <point x="279" y="300" type="line"/>
      <point x="232" y="306" type="line"/>
      <point x="184" y="290" type="line"/>
      <point x="180" y="188" type="line"/>
      <point x="188" y="0" type="line"/>
      <point x="44" y="0" type="line"/>
      <point x="52" y="188" type="line"/>
      <point x="44" y="375" type="line"/>
      <point x="188" y="375" type="line"/>
      <point x="187" y="345" type="line"/>
      <point x="269" y="380" type="line"/>
      <point x="407" y="368" type="line"/>
      <point x="419" y="345" type="line"/>
      <point x="501" y="380" type="line"/>
      <point x="651" y="361" type="line"/>
      <point x="644" y="188" type="line"/>
    </contour>
  </outline>
</glyph>
<glyph name="p" format="1">
  <advance width="459"/>
  <unicode hex="0070"/>
  <outline>
    <contour>
      <point x="421" y="188" type="line"/>
      <point x="406" y="16" type="line"/>
      <point x="271" y="-5" type="line"/>
      <point x="185" y="31" type="line"/>
      <point x="192" y="-140" type="line"/>
      <point x="46" y="-140" type="line"/>
      <point x="52" y="117" type="line"/>
      <point x="46" y="375" type="line"/>
      <point x="188" y="375" type="line"/>
      <point x="187" y="345" type="line"/>
      <point x="271" y="380" type="line"/>
      <point x="406" y="359" type="line"/>
    </contour>
    <contour>
      <point x="290" y="188" type="line"/>
      <point x="279" y="298" type="line"/>
      <point x="234" y="306" type="line"/>
      <point x="184" y="290" type="line"/>
      <point x="181" y="117" type="line"/>
      <point x="183" y="85" type="line"/>
      <point x="234" y="69" type="line"/>
      <point x="279" y="77" type="line"/>
    </contour>
  </outline>
</glyph>
<glyph name="q" format="1">
  <advance width="459"/>
  <unicode hex="0071"/>
  <outline>
    <contour>
      <point x="413" y="-140" type="line"/>
      <point x="267" y="-140" type="line"/>
      <point x="274" y="31" type="line"/>
      <point x="188" y="-5" type="line"/>
      <point x="53" y="16" type="line"/>
      <point x="38" y="188" type="line"/>
      <point x="53" y="359" type="line"/>
      <point x="188" y="380" type="line"/>
      <point x="272" y="345" type="line"/>
      <point x="271" y="375" type="line"/>
      <point x="413" y="375" type="line"/>
      <point x="407" y="117" type="line"/>
    </contour>
    <contour>
      <point x="278" y="117" type="line"/>
      <point x="275" y="290" type="line"/>
      <point x="225" y="306" type="line"/>
      <point x="180" y="298" type="line"/>
      <point x="169" y="188" type="line"/>
      <point x="180" y="77" type="line"/>
      <point x="225" y="69" type="line"/>
      <point x="276" y="85" type="line"/>
    </contour>
  </outline>
</glyph>
<glyph name="r" format="1">
  <advance width="331"/>
  <unicode hex="0072"/>
  <outline>
    <contour>
      <point x="323" y="376" type="line"/>
      <point x="307" y="272" type="line"/>
      <point x="214" y="300" type="line"/>
      <point x="184" y="290" type="line"/>
      <point x="180" y="188" type="line"/>
      <point x="188" y="0" type="line"/>
      <point x="44" y="0" type="line"/>
      <point x="52" y="188" type="line"/>
      <point x="44" y="375" type="line"/>
      <point x="188" y="375" type="line"/>
      <point x="187" y="345" type="line"/>
      <point x="269" y="380" type="line"/>
    </contour>
  </outline>
</glyph>
<glyph name="s" format="1">
  <advance width="369"/>
  <unicode hex="0073"/>
  <outline>
    <contour>
      <point x="332" y="26" type="line"/>
      <point x="215" y="-5" type="line"/>
      <point x="140" y="-5" type="line"/>
      <point x="31" y="6" type="line"/>
      <point x="45" y="90" type="line"/>
      <point x="147" y="57" type="line"/>
      <point x="201" y="65" type="line"/>
      <point x="201" y="113" type="line"/>
      <point x="40" y="213" type="line"/>
      <point x="40" y="349" type="line"/>
      <point x="151" y="380" type="line"/>
      <point x="222" y="380" type="line"/>
      <point x="331" y="369" type="line"/>
      <point x="317" y="285" type="line"/>
      <point x="215" y="318" type="line"/>
      <point x="167" y="310" type="line"/>
      <point x="167" y="263" type="line"/>
      <point x="332" y="163" type="line"/>
    </contour>
  </outline>
</glyph>
<glyph name="t" format="1">
  <advance width="304"/>
  <unicode hex="0074"/>
  <outline>
    <contour>
      <point x="282" y="1" type="line"/>
      <point x="200" y="-5" type="line"/>
      <point x="50" y="15" type="line"/>
      <point x="59" y="308" type="line"/>
      <point x="25" y="312" type="line"/>
      <point x="25" y="375" type="line"/>
      <point x="58" y="378" type="line"/>
      <point x="50" y="550" type="line"/>
      <point x="195" y="550" type="line"/>
      <point x="187" y="380" type="line"/>
      <point x="257" y="375" type="line"/>
      <point x="257" y="312" type="line"/>
      <point x="186" y="307" type="line"/>
      <point x="190" y="64" type="line"/>
      <point x="282" y="80" type="line"/>
    </contour>
  </outline>
</glyph>
<glyph name="u" format="1">
  <advance width="462"/>
  <unicode hex="0075"/>
  <outline>
    <contour>
      <point x="418" y="0" type="line"/>
      <point x="274" y="0" type="line"/>
      <point x="275" y="30" type="line"/>
      <point x="193" y="-5" type="line"/>
      <point x="43" y="14" type="line"/>
      <point x="50" y="187" type="line"/>
      <point x="42" y="375" type="line"/>
      <point x="186" y="375" type="line"/>
      <point x="178" y="187" type="line"/>
      <point x="183" y="75" type="line"/>
      <point x="230" y="69" type="line"/>
      <point x="278" y="85" type="line"/>
      <point x="282" y="187" type="line"/>
      <point x="274" y="375" type="line"/>
      <point x="418" y="375" type="line"/>
      <point x="410" y="187" type="line"/>
    </contour>
  </outline>
</glyph>
<glyph name="v" format="1">
  <advance width="410"/>
  <unicode hex="0076"/>
  <outline>
    <contour>
      <point x="398" y="355" type="line"/>
      <point x="331" y="180" type="line"/>
      <point x="272" y="0" type="line"/>
      <point x="147" y="0" type="line"/>
      <point x="86" y="164" type="line"/>
      <point x="12" y="340" type="line"/>
      <point x="156" y="388" type="line"/>
      <point x="184" y="251" type="line"/>
      <point x="227" y="103" type="line"/>
      <point x="278" y="256" type="line"/>
      <point x="309" y="388" type="line"/>
    </contour>
  </outline>
</glyph>
<glyph name="w" format="1">
  <advance width="640"/>
  <unicode hex="0077"/>
  <outline>
    <contour>
      <point x="628" y="355" type="line"/>
      <point x="561" y="180" type="line"/>
      <point x="502" y="0" type="line"/>
      <point x="377" y="0" type="line"/>
      <point x="321" y="151" type="line"/>
      <point x="272" y="0" type="line"/>
      <point x="147" y="0" type="line"/>
      <point x="87" y="164" type="line"/>
      <point x="12" y="340" type="line"/>
      <point x="156" y="388" type="line"/>
      <point x="184" y="251" type="line"/>
      <point x="227" y="103" type="line"/>
      <point x="277" y="254" type="line"/>
      <point x="242" y="340" type="line"/>
      <point x="386" y="388" type="line"/>
      <point x="414" y="251" type="line"/>
      <point x="457" y="103" type="line"/>
      <point x="508" y="256" type="line"/>
      <point x="539" y="388" type="line"/>
    </contour>
  </outline>
</glyph>
<glyph name="x" format="1">
  <advance width="410"/>
  <unicode hex="0078"/>
  <outline>
    <contour>
      <point x="397" y="45" type="line"/>
      <point x="270" y="-18" type="line"/>
      <point x="185" y="118" type="line"/>
      <point x="83" y="-16" type="line"/>
      <point x="18" y="45" type="line"/>
      <point x="143" y="171" type="line"/>
      <point x="20" y="330" type="line"/>
      <point x="147" y="393" type="line"/>
      <point x="224" y="266" type="line"/>
      <point x="319" y="391" type="line"/>
      <point x="384" y="331" type="line"/>
      <point x="267" y="213" type="line"/>
    </contour>
  </outline>
</glyph>
<glyph name="y" format="1">
  <advance width="462"/>
  <unicode hex="0079"/>
  <outline>
    <contour>
      <point x="418" y="-95" type="line"/>
      <point x="276" y="-140" type="line"/>
      <point x="139" y="-140" type="line"/>
      <point x="35" y="-128" type="line"/>
      <point x="49" y="-45" type="line"/>
      <point x="176" y="-77" type="line"/>
      <point x="275" y="-71" type="line"/>
      <point x="278" y="31" type="line"/>
      <point x="193" y="-5" type="line"/>
      <point x="43" y="14" type="line"/>
      <point x="50" y="188" type="line"/>
      <point x="42" y="375" type="line"/>
      <point x="186" y="375" type="line"/>
      <point x="178" y="188" type="line"/>
      <point x="183" y="75" type="line"/>
      <point x="230" y="69" type="line"/>
      <point x="278" y="85" type="line"/>
      <point x="282" y="188" type="line"/>
      <point x="274" y="375" type="line"/>
      <point x="418" y="375" type="line"/>
      <point x="410" y="116" type="line"/>
    </contour>
  </outline>
</glyph>
<glyph name="z" format="1">
  <advance width="403"/>
  <unicode hex="007A"/>
  <outline>
    <contour>
      <point x="373" y="0" type="line"/>
      <point x="32" y="0" type="line"/>
      <point x="17" y="55" type="line"/>
      <point x="233" y="317" type="line"/>
      <point x="57" y="293" type="line"/>
      <point x="42" y="375" type="line"/>
      <point x="358" y="375" type="line"/>
      <point x="373" y="320" type="line"/>
      <point x="157" y="58" type="line"/>
      <point x="358" y="83" type="line"/>
    </contour>
  </outline>
</glyph>
<glyph name="braceleft" format="1">
  <advance width="488"/>
  <unicode hex="007B"/>
  <outline>
    <contour>
      <point x="452" y="-91" type="line"/>
      <point x="418" y="-152" type="line"/>
      <point x="163" y="-41" type="line"/>
      <point x="198" y="115" type="line"/>
      <point x="120" y="173" type="line"/>
      <point x="29" y="190" type="line"/>
      <point x="29" y="264" type="line"/>
      <point x="120" y="281" type="line"/>
      <point x="198" y="339" type="line"/>
      <point x="163" y="496" type="line"/>
      <point x="418" y="607" type="line"/>
      <point x="452" y="546" type="line"/>
      <point x="320" y="472" type="line"/>
      <point x="360" y="311" type="line"/>
      <point x="229" y="227" type="line"/>
      <point x="360" y="143" type="line"/>
      <point x="320" y="-17" type="line"/>
    </contour>
  </outline>
</glyph>
<glyph name="bar" format="1">
  <advance width="319"/>
  <unicode hex="007C"/>
  <outline>
    <contour>
      <point x="233" y="227" type="line"/>
      <point x="212" y="-140" type="line"/>
      <point x="107" y="-140" type="line"/>
      <point x="86" y="227" type="line"/>
      <point x="107" y="595" type="line"/>
      <point x="212" y="595" type="line"/>
    </contour>
  </outline>
</glyph>
<glyph name="braceright" format="1">
  <advance width="488"/>
  <unicode hex="007D"/>
  <outline>
    <contour>
      <point x="459" y="190" type="line"/>
      <point x="368" y="173" type="line"/>
      <point x="290" y="115" type="line"/>
      <point x="325" y="-41" type="line"/>
      <point x="70" y="-152" type="line"/>
      <point x="36" y="-91" type="line"/>
      <point x="168" y="-17" type="line"/>
      <point x="128" y="143" type="line"/>
      <point x="259" y="227" type="line"/>
      <point x="128" y="311" type="line"/>
      <point x="168" y="472" type="line"/>
      <point x="36" y="546" type="line"/>
      <point x="70" y="607" type="line"/>
      <point x="325" y="496" type="line"/>
      <point x="290" y="339" type="line"/>
      <point x="368" y="281" type="line"/>
      <point x="459" y="264" type="line"/>
    </contour>
  </outline>
</glyph>
<glyph name="asciitilde" format="1">
  <advance width="488"/>
  <unicode hex="007E"/>
  <outline>
    <contour>
      <point x="466" y="280" type="line"/>
      <point x="392" y="206" type="line"/>
      <point x="341" y="136" type="line"/>
      <point x="248" y="136" type="line"/>
      <point x="170" y="199" type="line"/>
      <point x="74" y="128" type="line"/>
      <point x="22" y="175" type="line"/>
      <point x="96" y="249" type="line"/>
      <point x="147" y="319" type="line"/>
      <point x="240" y="319" type="line"/>
      <point x="318" y="256" type="line"/>
      <point x="414" y="327" type="line"/>
    </contour>
  </outline>
</glyph>
<glyph name="cent" format="1">
  <advance width="526"/>
  <unicode hex="00A2"/>
  <outline>
    <contour>
      <point x="480" y="500" type="line"/>
      <point x="442" y="377" type="line"/>
      <point x="298" y="451" type="line"/>
      <point x="217" y="427" type="line"/>
      <point x="198" y="297" type="line"/>
      <point x="217" y="168" type="line"/>
      <point x="297" y="144" type="line"/>
      <point x="455" y="193" type="line"/>
      <point x="475" y="112" type="line"/>
      <point x="346" y="67" type="line"/>
      <point x="357" y="-10" type="line"/>
      <point x="213" y="-10" type="line"/>
      <point x="224" y="67" type="line"/>
      <point x="69" y="116" type="line"/>
      <point x="44" y="297" type="line"/>
      <point x="69" y="479" type="line"/>
      <point x="224" y="528" type="line"/>
      <point x="213" y="605" type="line"/>
      <point x="357" y="605" type="line"/>
      <point x="346" y="530" type="line"/>
    </contour>
  </outline>
</glyph>
<glyph name="sterling" format="1">
  <advance width="557"/>
  <unicode hex="00A3"/>
  <outline>
    <contour>
      <point x="528" y="0" type="line"/>
      <point x="40" y="0" type="line"/>
      <point x="40" y="70" type="line"/>
      <point x="116" y="70" type="line"/>
      <point x="142" y="171" type="line"/>
      <point x="125" y="256" type="line"/>
      <point x="41" y="261" type="line"/>
      <point x="41" y="327" type="line"/>
      <point x="109" y="331" type="line"/>
      <point x="98" y="389" type="line"/>
      <point x="98" y="554" type="line"/>
      <point x="247" y="600" type="line"/>
      <point x="371" y="600" type="line"/>
      <point x="523" y="570" type="line"/>
      <point x="485" y="447" type="line"/>
      <point x="306" y="530" type="line"/>
      <point x="236" y="514" type="line"/>
      <point x="236" y="400" type="line"/>
      <point x="251" y="338" type="line"/>
      <point x="416" y="327" type="line"/>
      <point x="416" y="261" type="line"/>
      <point x="272" y="252" type="line"/>
      <point x="285" y="195" type="line"/>
      <point x="251" y="72" type="line"/>
      <point x="511" y="117" type="line"/>
    </contour>
  </outline>
</glyph>
<glyph name="yen" format="1">
  <advance width="631"/>
  <unicode hex="00A5"/>
  <outline>
    <contour>
      <point x="612" y="552" type="line"/>
      <point x="433" y="285" type="line"/>
      <point x="552" y="280" type="line"/>
      <point x="552" y="218" type="line"/>
      <point x="395" y="211" type="line"/>
      <point x="397" y="167" type="line"/>
      <point x="552" y="160" type="line"/>
      <point x="552" y="98" type="line"/>
      <point x="400" y="91" type="line"/>
      <point x="403" y="0" type="line"/>
      <point x="238" y="0" type="line"/>
      <point x="241" y="91" type="line"/>
      <point x="88" y="98" type="line"/>
      <point x="88" y="160" type="line"/>
      <point x="243" y="167" type="line"/>
      <point x="245" y="211" type="line"/>
      <point x="88" y="218" type="line"/>
      <point x="88" y="280" type="line"/>
      <point x="196" y="285" type="line"/>
      <point x="19" y="520" type="line"/>
      <point x="157" y="606" type="line"/>
      <point x="230" y="477" type="line"/>
      <point x="348" y="314" type="line"/>
      <point x="453" y="484" type="line"/>
      <point x="513" y="606" type="line"/>
    </contour>
  </outline>
</glyph>
<glyph name="section" format="1">
  <advance width="554"/>
  <unicode hex="00A7"/>
  <outline>
    <contour>
      <point x="500" y="578" type="line"/>
      <point x="469" y="460" type="line"/>
      <point x="275" y="526" type="line"/>
      <point x="213" y="508" type="line"/>
      <point x="213" y="466" type="line"/>
      <point x="494" y="374" type="line"/>
      <point x="494" y="278" type="line"/>
      <point x="446" y="203" type="line"/>
      <point x="484" y="190" type="line"/>
      <point x="484" y="43" type="line"/>
      <point x="340" y="-5" type="line"/>
      <point x="220" y="-5" type="line"/>
      <point x="54" y="17" type="line"/>
      <point x="85" y="135" type="line"/>
      <point x="279" y="69" type="line"/>
      <point x="341" y="87" type="line"/>
      <point x="341" y="129" type="line"/>
      <point x="60" y="221" type="line"/>
      <point x="60" y="317" type="line"/>
      <point x="108" y="392" type="line"/>
      <point x="70" y="405" type="line"/>
      <point x="70" y="552" type="line"/>
      <point x="214" y="600" type="line"/>
      <point x="334" y="600" type="line"/>
    </contour>
    <contour>
      <point x="386" y="296" type="line"/>
      <point x="194" y="362" type="line"/>
      <point x="168" y="299" type="line"/>
      <point x="359" y="233" type="line"/>
    </contour>
  </outline>
</glyph>
<glyph name="dieresis" format="1">
  <advance width="438"/>
  <unicode hex="00A8"/>
  <outline>
    <contour>
      <point x="373" y="476" type="line"/>
      <point x="369" y="416" type="line"/>
      <point x="247" y="416" type="line"/>
      <point x="243" y="476" type="line"/>
      <point x="247" y="536" type="line"/>
      <point x="369" y="536" type="line"/>
    </contour>
    <contour>
      <point x="195" y="476" type="line"/>
      <point x="191" y="416" type="line"/>
      <point x="69" y="416" type="line"/>
      <point x="65" y="476" type="line"/>
      <point x="69" y="536" type="line"/>
      <point x="191" y="536" type="line"/>
    </contour>
  </outline>
</glyph>
<glyph name="copyright" format="1">
  <advance width="715"/>
  <unicode hex="00A9"/>
  <outline>
    <contour>
      <point x="671" y="297" type="line"/>
      <point x="636" y="46" type="line"/>
      <point x="426" y="-5" type="line"/>
      <point x="289" y="-5" type="line"/>
      <point x="79" y="46" type="line"/>
      <point x="44" y="297" type="line"/>
      <point x="79" y="549" type="line"/>
      <point x="289" y="600" type="line"/>
      <point x="426" y="600" type="line"/>
      <point x="636" y="549" type="line"/>
    </contour>
    <contour>
      <point x="630" y="297" type="line"/>
      <point x="600" y="520" type="line"/>
      <point x="421" y="563" type="line"/>
      <point x="294" y="563" type="line"/>
      <point x="115" y="520" type="line"/>
      <point x="85" y="297" type="line"/>
      <point x="115" y="75" type="line"/>
      <point x="294" y="32" type="line"/>
      <point x="421" y="32" type="line"/>
      <point x="600" y="75" type="line"/>
    </contour>
    <contour>
      <point x="513" y="478" type="line"/>
      <point x="483" y="388" type="line"/>
      <point x="368" y="446" type="line"/>
      <point x="293" y="431" type="line"/>
      <point x="274" y="301" type="line"/>
      <point x="293" y="171" type="line"/>
      <point x="368" y="156" type="line"/>
      <point x="489" y="205" type="line"/>
      <point x="509" y="135" type="line"/>
      <point x="395" y="104" type="line"/>
      <point x="324" y="104" type="line"/>
      <point x="187" y="138" type="line"/>
      <point x="164" y="301" type="line"/>
      <point x="187" y="464" type="line"/>
      <point x="324" y="498" type="line"/>
      <point x="400" y="498" type="line"/>
    </contour>
  </outline>
</glyph>
<glyph name="ordfeminine" format="1">
  <advance width="428"/>
  <unicode hex="00AA"/>
  <outline>
    <contour>
      <point x="382" y="239" type="line"/>
      <point x="245" y="239" type="line"/>
      <point x="245" y="269" type="line"/>
      <point x="173" y="233" type="line"/>
      <point x="50" y="262" type="line"/>
      <point x="36" y="352" type="line"/>
      <point x="50" y="443" type="line"/>
      <point x="178" y="472" type="line"/>
      <point x="252" y="447" type="line"/>
      <point x="253" y="527" type="line"/>
      <point x="216" y="541" type="line"/>
      <point x="187" y="541" type="line"/>
      <point x="65" y="510" type="line"/>
      <point x="53" y="590" type="line"/>
      <point x="162" y="600" type="line"/>
      <point x="260" y="600" type="line"/>
      <point x="382" y="570" type="line"/>
      <point x="377" y="417" type="line"/>
    </contour>
    <contour>
      <point x="382" y="149" type="line"/>
      <point x="213" y="139" type="line"/>
      <point x="44" y="149" type="line"/>
      <point x="44" y="197" type="line"/>
      <point x="213" y="207" type="line"/>
      <point x="382" y="197" type="line"/>
    </contour>
    <contour>
      <point x="250" y="398" type="line"/>
      <point x="205" y="408" type="line"/>
      <point x="163" y="400" type="line"/>
      <point x="156" y="355" type="line"/>
      <point x="163" y="310" type="line"/>
      <point x="201" y="304" type="line"/>
      <point x="248" y="320" type="line"/>
    </contour>
  </outline>
</glyph>
<glyph name="guillemotleft" format="1">
  <advance width="528"/>
  <unicode hex="00AB"/>
  <outline>
    <contour>
      <point x="504" y="52" type="line"/>
      <point x="448" y="13" type="line"/>
      <point x="327" y="114" type="line"/>
      <point x="259" y="154" type="line"/>
      <point x="259" y="226" type="line"/>
      <point x="327" y="266" type="line"/>
      <point x="448" y="367" type="line"/>
      <point x="504" y="328" type="line"/>
      <point x="411" y="190" type="line"/>
    </contour>
    <contour>
      <point x="274" y="52" type="line"/>
      <point x="218" y="13" type="line"/>
      <point x="97" y="114" type="line"/>
      <point x="29" y="154" type="line"/>
      <point x="29" y="226" type="line"/>
      <point x="97" y="266" type="line"/>
      <point x="218" y="367" type="line"/>
      <point x="274" y="328" type="line"/>
      <point x="181" y="190" type="line"/>
    </contour>
  </outline>
</glyph>
<glyph name="degree" format="1">
  <advance width="464"/>
  <unicode hex="00B0"/>
  <outline>
    <contour>
      <point x="430" y="419" type="line"/>
      <point x="409" y="268" type="line"/>
      <point x="283" y="237" type="line"/>
      <point x="181" y="237" type="line"/>
      <point x="55" y="267" type="line"/>
      <point x="34" y="418" type="line"/>
      <point x="55" y="569" type="line"/>
      <point x="181" y="600" type="line"/>
      <point x="283" y="600" type="line"/>
      <point x="409" y="570" type="line"/>
    </contour>
    <contour>
      <point x="306" y="418" type="line"/>
      <point x="291" y="521" type="line"/>
      <point x="232" y="531" type="line"/>
      <point x="173" y="521" type="line"/>
      <point x="158" y="419" type="line"/>
      <point x="173" y="316" type="line"/>
      <point x="232" y="306" type="line"/>
      <point x="291" y="316" type="line"/>
    </contour>
  </outline>
</glyph>
<glyph name="acute" format="1">
  <advance width="438"/>
  <unicode hex="00B4"/>
  <outline>
    <contour>
      <point x="337" y="489" type="line"/>
      <point x="292" y="442" type="line"/>
      <point x="127" y="404" type="line"/>
      <point x="108" y="448" type="line"/>
      <point x="184" y="498" type="line"/>
      <point x="244" y="568" type="line"/>
    </contour>
  </outline>
</glyph>
<glyph name="paragraph" format="1">
  <advance width="553"/>
  <unicode hex="00B6"/>
  <outline>
    <contour>
      <point x="490" y="0" type="line"/>
      <point x="369" y="0" type="line"/>
      <point x="378" y="297" type="line"/>
      <point x="372" y="511" type="line"/>
      <point x="318" y="511" type="line"/>
      <point x="310" y="374" type="line"/>
      <point x="318" y="239" type="line"/>
      <point x="224" y="208" type="line"/>
      <point x="47" y="261" type="line"/>
      <point x="25" y="401" type="line"/>
      <point x="47" y="542" type="line"/>
      <point x="224" y="595" type="line"/>
      <point x="490" y="595" type="line"/>
      <point x="481" y="297" type="line"/>
    </contour>
  </outline>
</glyph>
<glyph name="periodcentered" format="1">
  <advance width="226"/>
  <unicode hex="00B7"/>
  <outline>
    <contour>
      <point x="192" y="227" type="line"/>
      <point x="188" y="158" type="line"/>
      <point x="38" y="158" type="line"/>
      <point x="34" y="227" type="line"/>
      <point x="38" y="296" type="line"/>
      <point x="188" y="296" type="line"/>
    </contour>
  </outline>
</glyph>
<glyph name="cedilla" format="1">
  <advance width="438"/>
  <unicode hex="00B8"/>
  <outline>
    <contour>
      <point x="312" y="-41" type="line"/>
      <point x="271" y="-88" type="line"/>
      <point x="133" y="-119" type="line"/>
      <point x="111" y="-77" type="line"/>
      <point x="179" y="-27" type="line"/>
      <point x="233" y="43" type="line"/>
    </contour>
  </outline>
</glyph>
<glyph name="guillemotright" format="1">
  <advance width="528"/>
  <unicode hex="00BB"/>
  <outline>
    <contour>
      <point x="499" y="154" type="line"/>
      <point x="431" y="114" type="line"/>
      <point x="310" y="13" type="line"/>
      <point x="254" y="52" type="line"/>
      <point x="347" y="190" type="line"/>
      <point x="254" y="328" type="line"/>
      <point x="310" y="367" type="line"/>
      <point x="431" y="266" type="line"/>
      <point x="499" y="226" type="line"/>
    </contour>
    <contour>
      <point x="269" y="154" type="line"/>
      <point x="201" y="114" type="line"/>
      <point x="80" y="13" type="line"/>
      <point x="24" y="52" type="line"/>
      <point x="117" y="190" type="line"/>
      <point x="24" y="328" type="line"/>
      <point x="80" y="367" type="line"/>
      <point x="201" y="266" type="line"/>
      <point x="269" y="226" type="line"/>
    </contour>
  </outline>
</glyph>
<glyph name="Aring" format="1">
  <advance width="621"/>
  <unicode hex="00C5"/>
  <outline>
    <contour>
      <point x="427" y="713" type="line"/>
      <point x="414" y="639" type="line"/>
      <point x="339" y="620" type="line"/>
      <point x="277" y="620" type="line"/>
      <point x="202" y="638" type="line"/>
      <point x="189" y="712" type="line"/>
      <point x="202" y="786" type="line"/>
      <point x="277" y="804" type="line"/>
      <point x="339" y="804" type="line"/>
      <point x="414" y="786" type="line"/>
    </contour>
    <contour>
      <point x="595" y="36" type="line"/>
      <point x="441" y="-11" type="line"/>
      <point x="406" y="114" type="line"/>
      <point x="162" y="114" type="line"/>
      <point x="124" y="-11" type="line"/>
      <point x="26" y="21" type="line"/>
      <point x="143" y="321" type="line"/>
      <point x="237" y="597" type="line"/>
      <point x="380" y="597" type="line"/>
      <point x="473" y="328" type="line"/>
    </contour>
    <contour>
      <point x="345" y="712" type="line"/>
      <point x="337" y="755" type="line"/>
      <point x="308" y="760" type="line"/>
      <point x="279" y="755" type="line"/>
      <point x="271" y="713" type="line"/>
      <point x="279" y="670" type="line"/>
      <point x="308" y="665" type="line"/>
      <point x="337" y="670" type="line"/>
    </contour>
    <contour>
      <point x="382" y="202" type="line"/>
      <point x="290" y="479" type="line"/>
      <point x="188" y="202" type="line"/>
    </contour>
  </outline>
</glyph>
<glyph name="AE" format="1">
  <advance width="829"/>
  <unicode hex="00C6"/>
  <outline>
    <contour>
      <point x="799" y="0" type="line"/>
      <point x="390" y="0" type="line"/>
      <point x="393" y="114" type="line"/>
      <point x="184" y="114" type="line"/>
      <point x="124" y="-11" type="line"/>
      <point x="26" y="31" type="line"/>
      <point x="184" y="321" type="line"/>
      <point x="317" y="595" type="line"/>
      <point x="796" y="595" type="line"/>
      <point x="773" y="484" type="line"/>
      <point x="535" y="522" type="line"/>
      <point x="531" y="341" type="line"/>
      <point x="715" y="357" type="line"/>
      <point x="715" y="248" type="line"/>
      <point x="531" y="265" type="line"/>
      <point x="535" y="73" type="line"/>
      <point x="777" y="111" type="line"/>
    </contour>
    <contour>
      <point x="398" y="297" type="line"/>
      <point x="392" y="519" type="line"/>
      <point x="233" y="218" type="line"/>
      <point x="225" y="202" type="line"/>
      <point x="395" y="202" type="line"/>
    </contour>
  </outline>
</glyph>
<glyph name="Eth" format="1">
  <advance width="644"/>
  <unicode hex="00D0"/>
  <outline>
    <contour>
      <point x="605" y="297" type="line"/>
      <point x="573" y="51" type="line"/>
      <point x="384" y="0" type="line"/>
      <point x="75" y="0" type="line"/>
      <point x="82" y="255" type="line"/>
      <point x="12" y="262" type="line"/>
      <point x="12" y="332" type="line"/>
      <point x="82" y="339" type="line"/>
      <point x="75" y="595" type="line"/>
      <point x="384" y="595" type="line"/>
      <point x="573" y="544" type="line"/>
    </contour>
    <contour>
      <point x="466" y="297" type="line"/>
      <point x="440" y="494" type="line"/>
      <point x="327" y="511" type="line"/>
      <point x="221" y="511" type="line"/>
      <point x="216" y="341" type="line"/>
      <point x="322" y="332" type="line"/>
      <point x="322" y="262" type="line"/>
      <point x="216" y="253" type="line"/>
      <point x="221" y="84" type="line"/>
      <point x="328" y="84" type="line"/>
      <point x="440" y="101" type="line"/>
    </contour>
  </outline>
</glyph>
<glyph name="Oslash" format="1">
  <advance width="643"/>
  <unicode hex="00D8"/>
  <outline>
    <contour>
      <point x="604" y="297" type="line"/>
      <point x="572" y="46" type="line"/>
      <point x="383" y="-5" type="line"/>
      <point x="260" y="-5" type="line"/>
      <point x="228" y="4" type="line"/>
      <point x="180" y="-90" type="line"/>
      <point x="127" y="-66" type="line"/>
      <point x="160" y="22" type="line"/>
      <point x="71" y="46" type="line"/>
      <point x="40" y="297" type="line"/>
      <point x="71" y="549" type="line"/>
      <point x="260" y="600" type="line"/>
      <point x="383" y="600" type="line"/>
      <point x="415" y="591" type="line"/>
      <point x="463" y="685" type="line"/>
      <point x="516" y="661" type="line"/>
      <point x="483" y="573" type="line"/>
      <point x="572" y="549" type="line"/>
    </contour>
    <contour>
      <point x="373" y="510" type="line"/>
      <point x="322" y="521" type="line"/>
      <point x="204" y="497" type="line"/>
      <point x="178" y="297" type="line"/>
      <point x="200" y="125" type="line"/>
      <point x="276" y="322" type="line"/>
    </contour>
    <contour>
      <point x="465" y="297" type="line"/>
      <point x="443" y="469" type="line"/>
      <point x="368" y="274" type="line"/>
      <point x="270" y="84" type="line"/>
      <point x="321" y="74" type="line"/>
      <point x="439" y="98" type="line"/>
    </contour>
  </outline>
</glyph>
<glyph name="Thorn" format="1">
  <advance width="556"/>
  <unicode hex="00DE"/>
  <outline>
    <contour>
      <point x="534" y="299" type="line"/>
      <point x="514" y="159" type="line"/>
      <point x="355" y="106" type="line"/>
      <point x="202" y="106" type="line"/>
      <point x="205" y="0" type="line"/>
      <point x="57" y="0" type="line"/>
      <point x="65" y="297" type="line"/>
      <point x="57" y="595" type="line"/>
      <point x="205" y="595" type="line"/>
      <point x="202" y="493" type="line"/>
      <point x="355" y="493" type="line"/>
      <point x="514" y="440" type="line"/>
    </contour>
    <contour>
      <point x="391" y="299" type="line"/>
      <point x="380" y="388" type="line"/>
      <point x="322" y="409" type="line"/>
      <point x="200" y="409" type="line"/>
      <point x="197" y="297" type="line"/>
      <point x="200" y="190" type="line"/>
      <point x="322" y="190" type="line"/>
      <point x="380" y="211" type="line"/>
    </contour>
  </outline>
</glyph>
<glyph name="germandbls" format="1">
  <advance width="590"/>
  <unicode hex="00DF"/>
  <outline>
    <contour>
      <point x="565" y="16" type="line"/>
      <point x="418" y="-5" type="line"/>
      <point x="343" y="-5" type="line"/>
      <point x="264" y="6" type="line"/>
      <point x="278" y="90" type="line"/>
      <point x="380" y="57" type="line"/>
      <point x="434" y="65" type="line"/>
      <point x="434" y="113" type="line"/>
      <point x="283" y="223" type="line"/>
      <point x="267" y="270" type="line"/>
      <point x="320" y="605" type="line"/>
      <point x="294" y="678" type="line"/>
      <point x="243" y="690" type="line"/>
      <point x="195" y="681" type="line"/>
      <point x="186" y="328" type="line"/>
      <point x="196" y="0" type="line"/>
      <point x="51" y="0" type="line"/>
      <point x="60" y="308" type="line"/>
      <point x="26" y="312" type="line"/>
      <point x="26" y="375" type="line"/>
      <point x="60" y="379" type="line"/>
      <point x="51" y="730" type="line"/>
      <point x="201" y="750" type="line"/>
      <point x="283" y="750" type="line"/>
      <point x="410" y="724" type="line"/>
      <point x="455" y="605" type="line"/>
      <point x="360" y="312" type="line"/>
      <point x="565" y="163" type="line"/>
    </contour>
  </outline>
</glyph>
<glyph name="ae" format="1">
  <advance width="632"/>
  <unicode hex="00E6"/>
  <outline>
    <contour>
      <point x="592" y="199" type="line"/>
      <point x="390" y="148" type="line"/>
      <point x="398" y="63" type="line"/>
      <point x="450" y="56" type="line"/>
      <point x="566" y="83" type="line"/>
      <point x="585" y="6" type="line"/>
      <point x="494" y="-5" type="line"/>
      <point x="406" y="-5" type="line"/>
      <point x="271" y="20" type="line"/>
      <point x="270" y="38" type="line"/>
      <point x="178" y="-6" type="line"/>
      <point x="48" y="24" type="line"/>
      <point x="33" y="119" type="line"/>
      <point x="48" y="215" type="line"/>
      <point x="183" y="245" type="line"/>
      <point x="261" y="219" type="line"/>
      <point x="262" y="303" type="line"/>
      <point x="223" y="318" type="line"/>
      <point x="192" y="318" type="line"/>
      <point x="64" y="285" type="line"/>
      <point x="51" y="369" type="line"/>
      <point x="166" y="380" type="line"/>
      <point x="257" y="380" type="line"/>
      <point x="320" y="359" type="line"/>
      <point x="406" y="380" type="line"/>
      <point x="444" y="380" type="line"/>
      <point x="579" y="356" type="line"/>
    </contour>
    <contour>
      <point x="460" y="219" type="line"/>
      <point x="454" y="313" type="line"/>
      <point x="425" y="319" type="line"/>
      <point x="396" y="313" type="line"/>
      <point x="389" y="201" type="line"/>
    </contour>
    <contour>
      <point x="265" y="88" type="line"/>
      <point x="259" y="167" type="line"/>
      <point x="211" y="178" type="line"/>
      <point x="167" y="169" type="line"/>
      <point x="160" y="122" type="line"/>
      <point x="167" y="75" type="line"/>
      <point x="207" y="68" type="line"/>
    </contour>
  </outline>
</glyph>
<glyph name="ccedilla" format="1">
  <advance width="370"/>
  <unicode hex="00E7"/>
  <outline>
    <contour>
      <point x="339" y="6" type="line"/>
      <point x="260" y="-5" type="line"/>
      <point x="243" y="-5" type="line"/>
      <point x="277" y="-41" type="line"/>
      <point x="236" y="-88" type="line"/>
      <point x="98" y="-119" type="line"/>
      <point x="76" y="-77" type="line"/>
      <point x="144" y="-27" type="line"/>
      <point x="164" y="-1" type="line"/>
      <point x="50" y="20" type="line"/>
      <point x="35" y="188" type="line"/>
      <point x="50" y="355" type="line"/>
      <point x="185" y="380" type="line"/>
      <point x="260" y="380" type="line"/>
      <point x="339" y="369" type="line"/>
      <point x="325" y="285" type="line"/>
      <point x="223" y="318" type="line"/>
      <point x="178" y="312" type="line"/>
      <point x="166" y="188" type="line"/>
      <point x="178" y="64" type="line"/>
      <point x="223" y="57" type="line"/>
      <point x="320" y="82" type="line"/>
    </contour>
  </outline>
</glyph>
<glyph name="eth" format="1">
  <advance width="450"/>
  <unicode hex="00F0"/>
  <outline>
    <contour>
      <point x="484" y="510" type="line"/>
      <point x="404" y="505" type="line"/>
      <point x="410" y="372" type="line"/>
      <point x="395" y="20" type="line"/>
      <point x="260" y="-5" type="line"/>
      <point x="185" y="-5" type="line"/>
      <point x="50" y="20" type="line"/>
      <point x="35" y="188" type="line"/>
      <point x="50" y="355" type="line"/>
      <point x="185" y="380" type="line"/>
      <point x="279" y="366" type="line"/>
      <point x="279" y="372" type="line"/>
      <point x="274" y="504" type="line"/>
      <point x="149" y="510" type="line"/>
      <point x="149" y="570" type="line"/>
      <point x="271" y="576" type="line"/>
      <point x="267" y="679" type="line"/>
      <point x="223" y="688" type="line"/>
      <point x="117" y="634" type="line"/>
      <point x="80" y="725" type="line"/>
      <point x="185" y="750" type="line"/>
      <point x="260" y="750" type="line"/>
      <point x="395" y="725" type="line"/>
      <point x="401" y="575" type="line"/>
      <point x="484" y="570" type="line"/>
    </contour>
    <contour>
      <point x="276" y="304" type="line"/>
      <point x="224" y="314" type="line"/>
      <point x="178" y="306" type="line"/>
      <point x="166" y="188" type="line"/>
      <point x="178" y="66" type="line"/>
      <point x="223" y="57" type="line"/>
      <point x="267" y="66" type="line"/>
    </contour>
  </outline>
</glyph>
<glyph name="oslash" format="1">
  <advance width="445"/>
  <unicode hex="00F8"/>
  <outline>
    <contour>
      <point x="410" y="188" type="line"/>
      <point x="395" y="20" type="line"/>
      <point x="260" y="-5" type="line"/>
      <point x="185" y="-5" type="line"/>
      <point x="172" y="-3" type="line"/>
      <point x="120" y="-90" type="line"/>
      <point x="61" y="-66" type="line"/>
      <point x="92" y="12" type="line"/>
      <point x="50" y="20" type="line"/>
      <point x="35" y="188" type="line"/>
      <point x="50" y="355" type="line"/>
      <point x="185" y="380" type="line"/>
      <point x="260" y="380" type="line"/>
      <point x="272" y="378" type="line"/>
      <point x="325" y="466" type="line"/>
      <point x="384" y="442" type="line"/>
      <point x="352" y="363" type="line"/>
      <point x="395" y="355" type="line"/>
    </contour>
    <contour>
      <point x="279" y="188" type="line"/>
      <point x="267" y="310" type="line"/>
      <point x="224" y="318" type="line"/>
      <point x="178" y="310" type="line"/>
      <point x="166" y="188" type="line"/>
      <point x="178" y="66" type="line"/>
      <point x="223" y="57" type="line"/>
      <point x="267" y="66" type="line"/>
    </contour>
  </outline>
</glyph>
<glyph name="thorn" format="1">
  <advance width="459"/>
  <unicode hex="00FE"/>
  <outline>
    <contour>
      <point x="417" y="188" type="line"/>
      <point x="402" y="16" type="line"/>
      <point x="267" y="-5" type="line"/>
      <point x="182" y="31" type="line"/>
      <point x="188" y="-140" type="line"/>
      <point x="42" y="-140" type="line"/>
      <point x="52" y="305" type="line"/>
      <point x="42" y="750" type="line"/>
      <point x="191" y="750" type="line"/>
      <point x="179" y="343" type="line"/>
      <point x="267" y="380" type="line"/>
      <point x="402" y="359" type="line"/>
    </contour>
    <contour>
      <point x="286" y="188" type="line"/>
      <point x="275" y="298" type="line"/>
      <point x="230" y="306" type="line"/>
      <point x="177" y="289" type="line"/>
      <point x="181" y="85" type="line"/>
      <point x="230" y="69" type="line"/>
      <point x="275" y="77" type="line"/>
    </contour>
  </outline>
</glyph>
<glyph name="dotlessi" format="1">
  <advance width="235"/>
  <unicode hex="0131"/>
  <outline>
    <contour>
      <point x="191" y="0" type="line"/>
      <point x="47" y="0" type="line"/>
      <point x="55" y="188" type="line"/>
      <point x="47" y="375" type="line"/>
      <point x="191" y="375" type="line"/>
      <point x="183" y="188" type="line"/>
    </contour>
  </outline>
</glyph>
<glyph name="Lslash" format="1">
  <advance width="493"/>
  <unicode hex="0141"/>
  <outline>
    <contour>
      <point x="472" y="0" type="line"/>
      <point x="84" y="0" type="line"/>
      <point x="90" y="219" type="line"/>
      <point x="28" y="200" type="line"/>
      <point x="6" y="266" type="line"/>
      <point x="92" y="309" type="line"/>
      <point x="84" y="595" type="line"/>
      <point x="230" y="595" type="line"/>
      <point x="225" y="363" type="line"/>
      <point x="331" y="397" type="line"/>
      <point x="353" y="331" type="line"/>
      <point x="225" y="268" type="line"/>
      <point x="229" y="73" type="line"/>
      <point x="449" y="111" type="line"/>
    </contour>
  </outline>
</glyph>
<glyph name="lslash" format="1">
  <advance width="333"/>
  <unicode hex="0142"/>
  <outline>
    <contour>
      <point x="330" y="320" type="line"/>
      <point x="231" y="273" type="line"/>
      <point x="239" y="0" type="line"/>
      <point x="94" y="0" type="line"/>
      <point x="101" y="229" type="line"/>
      <point x="26" y="209" type="line"/>
      <point x="2" y="274" type="line"/>
      <point x="104" y="322" type="line"/>
      <point x="104" y="328" type="line"/>
      <point x="94" y="750" type="line"/>
      <point x="239" y="750" type="line"/>
      <point x="230" y="365" type="line"/>
      <point x="306" y="385" type="line"/>
    </contour>
  </outline>
</glyph>
<glyph name="OE" format="1">
  <advance width="860"/>
  <unicode hex="0152"/>
  <outline>
    <contour>
      <point x="831" y="0" type="line"/>
      <point x="260" y="0" type="line"/>
      <point x="71" y="51" type="line"/>
      <point x="40" y="297" type="line"/>
      <point x="71" y="544" type="line"/>
      <point x="260" y="595" type="line"/>
      <point x="828" y="595" type="line"/>
      <point x="805" y="484" type="line"/>
      <point x="567" y="522" type="line"/>
      <point x="563" y="341" type="line"/>
      <point x="747" y="357" type="line"/>
      <point x="747" y="248" type="line"/>
      <point x="563" y="265" type="line"/>
      <point x="567" y="73" type="line"/>
      <point x="809" y="111" type="line"/>
    </contour>
    <contour>
      <point x="430" y="297" type="line"/>
      <point x="424" y="511" type="line"/>
      <point x="318" y="511" type="line"/>
      <point x="204" y="494" type="line"/>
      <point x="178" y="297" type="line"/>
      <point x="204" y="101" type="line"/>
      <point x="317" y="84" type="line"/>
      <point x="424" y="84" type="line"/>
    </contour>
  </outline>
</glyph>
<glyph name="oe" format="1">
  <advance width="640"/>
  <unicode hex="0153"/>
  <outline>
    <contour>
      <point x="610" y="199" type="line"/>
      <point x="408" y="148" type="line"/>
      <point x="416" y="63" type="line"/>
      <point x="468" y="56" type="line"/>
      <point x="584" y="83" type="line"/>
      <point x="603" y="6" type="line"/>
      <point x="512" y="-5" type="line"/>
      <point x="424" y="-5" type="line"/>
      <point x="340" y="15" type="line"/>
      <point x="260" y="-5" type="line"/>
      <point x="185" y="-5" type="line"/>
      <point x="50" y="20" type="line"/>
      <point x="35" y="188" type="line"/>
      <point x="50" y="355" type="line"/>
      <point x="185" y="380" type="line"/>
      <point x="260" y="380" type="line"/>
      <point x="340" y="360" type="line"/>
      <point x="424" y="380" type="line"/>
      <point x="462" y="380" type="line"/>
      <point x="597" y="356" type="line"/>
    </contour>
    <contour>
      <point x="478" y="219" type="line"/>
      <point x="472" y="313" type="line"/>
      <point x="443" y="319" type="line"/>
      <point x="414" y="313" type="line"/>
      <point x="407" y="201" type="line"/>
    </contour>
    <contour>
      <point x="279" y="188" type="line"/>
      <point x="267" y="310" type="line"/>
      <point x="224" y="318" type="line"/>
      <point x="178" y="310" type="line"/>
      <point x="166" y="188" type="line"/>
      <point x="178" y="66" type="line"/>
      <point x="223" y="57" type="line"/>
      <point x="267" y="66" type="line"/>
    </contour>
  </outline>
</glyph>
<glyph name="florin" format="1">
  <advance width="348"/>
  <unicode hex="0192"/>
  <outline>
    <contour>
      <point x="352" y="581" type="line"/>
      <point x="312" y="475" type="line"/>
      <point x="199" y="532" type="line"/>
      <point x="193" y="303" type="line"/>
      <point x="287" y="297" type="line"/>
      <point x="287" y="227" type="line"/>
      <point x="193" y="221" type="line"/>
      <point x="200" y="-140" type="line"/>
      <point x="55" y="-140" type="line"/>
      <point x="64" y="223" type="line"/>
      <point x="20" y="227" type="line"/>
      <point x="20" y="297" type="line"/>
      <point x="64" y="301" type="line"/>
      <point x="55" y="581" type="line"/>
      <point x="210" y="601" type="line"/>
    </contour>
  </outline>
</glyph>
<glyph name="circumflex" format="1">
  <advance width="438"/>
  <unicode hex="02C6"/>
  <outline>
    <contour>
      <point x="366" y="448" type="line"/>
      <point x="337" y="404" type="line"/>
      <point x="219" y="453" type="line"/>
      <point x="101" y="404" type="line"/>
      <point x="72" y="448" type="line"/>
      <point x="138" y="503" type="line"/>
      <point x="183" y="558" type="line"/>
      <point x="255" y="558" type="line"/>
      <point x="300" y="503" type="line"/>
    </contour>
  </outline>
</glyph>
<glyph name="caron" format="1">
  <advance width="438"/>
  <unicode hex="02C7"/>
  <outline>
    <contour>
      <point x="366" y="521" type="line"/>
      <point x="300" y="466" type="line"/>
      <point x="255" y="411" type="line"/>
      <point x="183" y="411" type="line"/>
      <point x="138" y="466" type="line"/>
      <point x="72" y="521" type="line"/>
      <point x="101" y="565" type="line"/>
      <point x="219" y="516" type="line"/>
      <point x="337" y="565" type="line"/>
    </contour>
  </outline>
</glyph>
<glyph name="breve" format="1">
  <advance width="438"/>
  <unicode hex="02D8"/>
  <outline>
    <contour>
      <point x="371" y="531" type="line"/>
      <point x="325" y="450" type="line"/>
      <point x="255" y="411" type="line"/>
      <point x="183" y="411" type="line"/>
      <point x="113" y="450" type="line"/>
      <point x="67" y="531" type="line"/>
      <point x="109" y="565" type="line"/>
      <point x="182" y="507" type="line"/>
      <point x="256" y="507" type="line"/>
      <point x="329" y="565" type="line"/>
    </contour>
  </outline>
</glyph>
<glyph name="dotaccent" format="1">
  <advance width="438"/>
  <unicode hex="02D9"/>
  <outline>
    <contour>
      <point x="284" y="476" type="line"/>
      <point x="280" y="416" type="line"/>
      <point x="158" y="416" type="line"/>
      <point x="154" y="476" type="line"/>
      <point x="158" y="536" type="line"/>
      <point x="280" y="536" type="line"/>
    </contour>
  </outline>
</glyph>
<glyph name="ring" format="1">
  <advance width="438"/>
  <unicode hex="02DA"/>
  <outline>
    <contour>
      <point x="338" y="501" type="line"/>
      <point x="325" y="427" type="line"/>
      <point x="250" y="408" type="line"/>
      <point x="188" y="408" type="line"/>
      <point x="113" y="426" type="line"/>
      <point x="100" y="500" type="line"/>
      <point x="113" y="574" type="line"/>
      <point x="188" y="592" type="line"/>
      <point x="250" y="592" type="line"/>
      <point x="325" y="574" type="line"/>
    </contour>
    <contour>
      <point x="256" y="500" type="line"/>
      <point x="248" y="543" type="line"/>
      <point x="219" y="548" type="line"/>
      <point x="190" y="543" type="line"/>
      <point x="182" y="501" type="line"/>
      <point x="190" y="458" type="line"/>
      <point x="219" y="453" type="line"/>
      <point x="248" y="458" type="line"/>
    </contour>
  </outline>
</glyph>
<glyph name="ogonek" format="1">
  <advance width="438"/>
  <unicode hex="02DB"/>
  <outline>
    <contour>
      <point x="327" y="-77" type="line"/>
      <point x="305" y="-119" type="line"/>
      <point x="167" y="-88" type="line"/>
      <point x="126" y="-41" type="line"/>
      <point x="205" y="43" type="line"/>
      <point x="259" y="-27" type="line"/>
    </contour>
  </outline>
</glyph>
<glyph name="tilde" format="1">
  <advance width="438"/>
  <unicode hex="02DC"/>
  <outline>
    <contour>
      <point x="390" y="522" type="line"/>
      <point x="333" y="465" type="line"/>
      <point x="294" y="411" type="line"/>
      <point x="222" y="411" type="line"/>
      <point x="162" y="460" type="line"/>
      <point x="88" y="405" type="line"/>
      <point x="48" y="441" type="line"/>
      <point x="105" y="498" type="line"/>
      <point x="144" y="552" type="line"/>
      <point x="216" y="552" type="line"/>
      <point x="276" y="503" type="line"/>
      <point x="350" y="558" type="line"/>
    </contour>
  </outline>
</glyph>
<glyph name="hungarumlaut" format="1">
  <advance width="438"/>
  <unicode hex="02DD"/>
  <outline>
    <contour>
      <point x="391" y="526" type="line"/>
      <point x="363" y="475" type="line"/>
      <point x="228" y="404" type="line"/>
      <point x="202" y="438" type="line"/>
      <point x="256" y="498" type="line"/>
      <point x="292" y="573" type="line"/>
    </contour>
    <contour>
      <point x="235" y="526" type="line"/>
      <point x="207" y="475" type="line"/>
      <point x="72" y="404" type="line"/>
      <point x="46" y="437" type="line"/>
      <point x="99" y="498" type="line"/>
      <point x="136" y="573" type="line"/>
    </contour>
  </outline>
</glyph>
<glyph name="endash" format="1">
  <advance width="458"/>
  <unicode hex="2013"/>
  <outline>
    <contour>
      <point x="421" y="178" type="line"/>
      <point x="229" y="164" type="line"/>
      <point x="37" y="178" type="line"/>
      <point x="37" y="276" type="line"/>
      <point x="229" y="290" type="line"/>
      <point x="421" y="276" type="line"/>
    </contour>
  </outline>
</glyph>
<glyph name="emdash" format="1">
  <advance width="618"/>
  <unicode hex="2014"/>
  <outline>
    <contour>
      <point x="581" y="178" type="line"/>
      <point x="309" y="160" type="line"/>
      <point x="37" y="178" type="line"/>
      <point x="37" y="276" type="line"/>
      <point x="309" y="294" type="line"/>
      <point x="581" y="276" type="line"/>
    </contour>
  </outline>
</glyph>
<glyph name="quoteleft" format="1">
  <advance width="226"/>
  <unicode hex="2018"/>
  <unicode hex="02BB"/>
  <outline>
    <contour>
      <point x="195" y="585" type="line"/>
      <point x="175" y="470" type="line"/>
      <point x="188" y="333" type="line"/>
      <point x="38" y="333" type="line"/>
      <point x="34" y="442" type="line"/>
      <point x="137" y="607" type="line"/>
    </contour>
  </outline>
</glyph>
<glyph name="quoteright" format="1">
  <advance width="226"/>
  <unicode hex="2019"/>
  <unicode hex="02BC"/>
  <outline>
    <contour>
      <point x="192" y="486" type="line"/>
      <point x="89" y="321" type="line"/>
      <point x="31" y="343" type="line"/>
      <point x="51" y="458" type="line"/>
      <point x="38" y="595" type="line"/>
      <point x="188" y="595" type="line"/>
    </contour>
  </outline>
</glyph>
<glyph name="quotesinglbase" format="1">
  <advance width="226"/>
  <unicode hex="201A"/>
  <outline>
    <contour>
      <point x="192" y="29" type="line"/>
      <point x="89" y="-136" type="line"/>
      <point x="31" y="-114" type="line"/>
      <point x="51" y="1" type="line"/>
      <point x="38" y="138" type="line"/>
      <point x="188" y="138" type="line"/>
    </contour>
  </outline>
</glyph>
<glyph name="quotedblleft" format="1">
  <advance width="454"/>
  <unicode hex="201C"/>
  <outline>
    <contour>
      <point x="423" y="585" type="line"/>
      <point x="403" y="470" type="line"/>
      <point x="416" y="333" type="line"/>
      <point x="266" y="333" type="line"/>
      <point x="262" y="442" type="line"/>
      <point x="365" y="607" type="line"/>
    </contour>
    <contour>
      <point x="195" y="585" type="line"/>
      <point x="175" y="470" type="line"/>
      <point x="188" y="333" type="line"/>
      <point x="38" y="333" type="line"/>
      <point x="34" y="442" type="line"/>
      <point x="137" y="607" type="line"/>
    </contour>
  </outline>
</glyph>
<glyph name="quotedblright" format="1">
  <advance width="454"/>
  <unicode hex="201D"/>
  <outline>
    <contour>
      <point x="420" y="486" type="line"/>
      <point x="317" y="321" type="line"/>
      <point x="259" y="343" type="line"/>
      <point x="279" y="458" type="line"/>
      <point x="266" y="595" type="line"/>
      <point x="416" y="595" type="line"/>
    </contour>
    <contour>
      <point x="192" y="486" type="line"/>
      <point x="89" y="321" type="line"/>
      <point x="31" y="343" type="line"/>
      <point x="51" y="458" type="line"/>
      <point x="38" y="595" type="line"/>
      <point x="188" y="595" type="line"/>
    </contour>
  </outline>
</glyph>
<glyph name="quotedblbase" format="1">
  <advance width="454"/>
  <unicode hex="201E"/>
  <outline>
    <contour>
      <point x="420" y="29" type="line"/>
      <point x="317" y="-136" type="line"/>
      <point x="259" y="-114" type="line"/>
      <point x="279" y="1" type="line"/>
      <point x="266" y="138" type="line"/>
      <point x="416" y="138" type="line"/>
    </contour>
    <contour>
      <point x="192" y="29" type="line"/>
      <point x="89" y="-136" type="line"/>
      <point x="31" y="-114" type="line"/>
      <point x="51" y="1" type="line"/>
      <point x="38" y="138" type="line"/>
      <point x="188" y="138" type="line"/>
    </contour>
  </outline>
</glyph>
<glyph name="dagger" format="1">
  <advance width="513"/>
  <unicode hex="2020"/>
  <outline>
    <contour>
      <point x="487" y="351" type="line"/>
      <point x="320" y="358" type="line"/>
      <point x="329" y="0" type="line"/>
      <point x="184" y="0" type="line"/>
      <point x="193" y="358" type="line"/>
      <point x="26" y="351" type="line"/>
      <point x="26" y="456" type="line"/>
      <point x="192" y="449" type="line"/>
      <point x="184" y="595" type="line"/>
      <point x="329" y="595" type="line"/>
      <point x="321" y="449" type="line"/>
      <point x="487" y="456" type="line"/>
    </contour>
  </outline>
</glyph>
<glyph name="daggerdbl" format="1">
  <advance width="513"/>
  <unicode hex="2021"/>
  <outline>
    <contour>
      <point x="482" y="140" type="line"/>
      <point x="323" y="147" type="line"/>
      <point x="329" y="0" type="line"/>
      <point x="184" y="0" type="line"/>
      <point x="190" y="147" type="line"/>
      <point x="31" y="140" type="line"/>
      <point x="31" y="241" type="line"/>
      <point x="194" y="234" type="line"/>
      <point x="197" y="298" type="line"/>
      <point x="194" y="362" type="line"/>
      <point x="31" y="355" type="line"/>
      <point x="31" y="456" type="line"/>
      <point x="190" y="449" type="line"/>
      <point x="184" y="595" type="line"/>
      <point x="329" y="595" type="line"/>
      <point x="323" y="449" type="line"/>
      <point x="482" y="456" type="line"/>
      <point x="482" y="355" type="line"/>
      <point x="319" y="362" type="line"/>
      <point x="316" y="298" type="line"/>
      <point x="319" y="234" type="line"/>
      <point x="482" y="241" type="line"/>
    </contour>
  </outline>
</glyph>
<glyph name="ellipsis" format="1">
  <advance width="702"/>
  <unicode hex="2026"/>
  <outline>
    <contour>
      <point x="668" y="69" type="line"/>
      <point x="664" y="0" type="line"/>
      <point x="514" y="0" type="line"/>
      <point x="510" y="69" type="line"/>
      <point x="514" y="138" type="line"/>
      <point x="664" y="138" type="line"/>
    </contour>
    <contour>
      <point x="430" y="69" type="line"/>
      <point x="426" y="0" type="line"/>
      <point x="276" y="0" type="line"/>
      <point x="272" y="69" type="line"/>
      <point x="276" y="138" type="line"/>
      <point x="426" y="138" type="line"/>
    </contour>
    <contour>
      <point x="192" y="69" type="line"/>
      <point x="188" y="0" type="line"/>
      <point x="38" y="0" type="line"/>
      <point x="34" y="69" type="line"/>
      <point x="38" y="138" type="line"/>
      <point x="188" y="138" type="line"/>
    </contour>
  </outline>
</glyph>
<glyph name="guilsinglleft" format="1">
  <advance width="298"/>
  <unicode hex="2039"/>
  <outline>
    <contour>
      <point x="274" y="52" type="line"/>
      <point x="218" y="13" type="line"/>
      <point x="97" y="114" type="line"/>
      <point x="29" y="154" type="line"/>
      <point x="29" y="226" type="line"/>
      <point x="97" y="266" type="line"/>
      <point x="218" y="367" type="line"/>
      <point x="274" y="328" type="line"/>
      <point x="181" y="190" type="line"/>
    </contour>
  </outline>
</glyph>
<glyph name="guilsinglright" format="1">
  <advance width="298"/>
  <unicode hex="203A"/>
  <outline>
    <contour>
      <point x="269" y="154" type="line"/>
      <point x="201" y="114" type="line"/>
      <point x="80" y="13" type="line"/>
      <point x="24" y="52" type="line"/>
      <point x="117" y="190" type="line"/>
      <point x="24" y="328" type="line"/>
      <point x="80" y="367" type="line"/>
      <point x="201" y="266" type="line"/>
      <point x="269" y="226" type="line"/>
    </contour>
  </outline>
</glyph>
<glyph name="fraction" format="1">
  <advance width="483"/>
  <unicode hex="2044"/>
  <outline>
    <contour>
      <point x="466" y="581" type="line"/>
      <point x="288" y="216" type="line"/>
      <point x="94" y="-14" type="line"/>
      <point x="17" y="14" type="line"/>
      <point x="195" y="379" type="line"/>
      <point x="389" y="609" type="line"/>
    </contour>
  </outline>
</glyph>
<glyph name="Euro" format="1">
  <advance width="583"/>
  <unicode hex="20AC"/>
  <outline>
    <contour>
      <point x="18" y="199" type="line"/>
      <point x="18" y="260" type="line"/>
      <point x="94" y="264" type="line"/>
      <point x="90" y="297" type="line"/>
      <point x="94" y="330" type="line"/>
      <point x="18" y="334" type="line"/>
      <point x="18" y="395" type="line"/>
      <point x="102" y="399" type="line"/>
      <point x="120" y="549" type="line"/>
      <point x="296" y="600" type="line"/>
      <point x="403" y="600" type="line"/>
      <point x="550" y="570" type="line"/>
      <point x="519" y="461" type="line"/>
      <point x="359" y="527" type="line"/>
      <point x="251" y="505" type="line"/>
      <point x="239" y="402" type="line"/>
      <point x="397" y="395" type="line"/>
      <point x="397" y="334" type="line"/>
      <point x="230" y="326" type="line"/>
      <point x="226" y="297" type="line"/>
      <point x="230" y="267" type="line"/>
      <point x="397" y="260" type="line"/>
      <point x="397" y="199" type="line"/>
      <point x="239" y="192" type="line"/>
      <point x="251" y="90" type="line"/>
      <point x="358" y="69" type="line"/>
      <point x="522" y="129" type="line"/>
      <point x="545" y="42" type="line"/>
      <point x="397" y="-5" type="line"/>
      <point x="296" y="-5" type="line"/>
      <point x="120" y="46" type="line"/>
      <point x="103" y="195" type="line"/>
    </contour>
  </outline>
</glyph>
<glyph name="uni2117" format="1">
  <advance width="715"/>
  <unicode hex="2117"/>
  <outline>
    <contour>
      <point x="671" y="297" type="line"/>
      <point x="636" y="46" type="line"/>
      <point x="426" y="-5" type="line"/>
      <point x="289" y="-5" type="line"/>
      <point x="79" y="46" type="line"/>
      <point x="44" y="297" type="line"/>
      <point x="79" y="549" type="line"/>
      <point x="289" y="600" type="line"/>
      <point x="426" y="600" type="line"/>
      <point x="636" y="549" type="line"/>
    </contour>
    <contour>
      <point x="630" y="297" type="line"/>
      <point x="600" y="520" type="line"/>
      <point x="421" y="563" type="line"/>
      <point x="294" y="563" type="line"/>
      <point x="115" y="520" type="line"/>
      <point x="85" y="297" type="line"/>
      <point x="115" y="75" type="line"/>
      <point x="294" y="32" type="line"/>
      <point x="421" y="32" type="line"/>
      <point x="600" y="75" type="line"/>
    </contour>
    <contour>
      <point x="540" y="366" type="line"/>
      <point x="526" y="275" type="line"/>
      <point x="411" y="241" type="line"/>
      <point x="309" y="241" type="line"/>
      <point x="313" y="106" type="line"/>
      <point x="195" y="106" type="line"/>
      <point x="201" y="299" type="line"/>
      <point x="195" y="493" type="line"/>
      <point x="411" y="493" type="line"/>
      <point x="526" y="458" type="line"/>
    </contour>
    <contour>
      <point x="427" y="366" type="line"/>
      <point x="419" y="424" type="line"/>
      <point x="377" y="438" type="line"/>
      <point x="311" y="438" type="line"/>
      <point x="307" y="296" type="line"/>
      <point x="377" y="296" type="line"/>
      <point x="419" y="309" type="line"/>
    </contour>
  </outline>
</glyph>
<glyph name="trademark" format="1">
  <advance width="876"/>
  <unicode hex="2122"/>
  <outline>
    <contour>
      <point x="829" y="208" type="line"/>
      <point x="724" y="208" type="line"/>
      <point x="730" y="466" type="line"/>
      <point x="627" y="208" type="line"/>
      <point x="567" y="208" type="line"/>
      <point x="452" y="466" type="line"/>
      <point x="466" y="208" type="line"/>
      <point x="396" y="208" type="line"/>
      <point x="401" y="401" type="line"/>
      <point x="396" y="595" type="line"/>
      <point x="505" y="595" type="line"/>
      <point x="559" y="455" type="line"/>
      <point x="618" y="321" type="line"/>
      <point x="670" y="452" type="line"/>
      <point x="718" y="595" type="line"/>
      <point x="829" y="595" type="line"/>
      <point x="824" y="401" type="line"/>
    </contour>
    <contour>
      <point x="353" y="595" type="line"/>
      <point x="341" y="524" type="line"/>
      <point x="236" y="544" type="line"/>
      <point x="232" y="401" type="line"/>
      <point x="237" y="208" type="line"/>
      <point x="131" y="208" type="line"/>
      <point x="137" y="401" type="line"/>
      <point x="132" y="544" type="line"/>
      <point x="28" y="524" type="line"/>
      <point x="16" y="595" type="line"/>
    </contour>
  </outline>
</glyph>
<glyph name="radical" format="1">
  <advance width="553"/>
  <unicode hex="221A"/>
  <outline>
    <contour>
      <point x="533" y="574" type="line"/>
      <point x="413" y="274" type="line"/>
      <point x="320" y="-2" type="line"/>
      <point x="171" y="-2" type="line"/>
      <point x="95" y="147" type="line"/>
      <point x="8" y="265" type="line"/>
      <point x="152" y="342" type="line"/>
      <point x="261" y="116" type="line"/>
      <point x="358" y="377" type="line"/>
      <point x="414" y="606" type="line"/>
    </contour>
  </outline>
</glyph>
<glyph name="apple" format="1">
  <advance width="688"/>
  <unicode hex="F8FF"/>
  <outline>
    <contour>
      <point x="664" y="243" type="line"/>
      <point x="406" y="256" type="line"/>
      <point x="413" y="176" type="line"/>
      <point x="549" y="189" type="line"/>
      <point x="549" y="92" type="line"/>
      <point x="420" y="103" type="line"/>
      <point x="430" y="0" type="line"/>
      <point x="258" y="0" type="line"/>
      <point x="268" y="103" type="line"/>
      <point x="139" y="92" type="line"/>
      <point x="139" y="189" type="line"/>
      <point x="275" y="176" type="line"/>
      <point x="282" y="256" type="line"/>
      <point x="24" y="243" type="line"/>
      <point x="24" y="352" type="line"/>
      <point x="282" y="340" type="line"/>
      <point x="275" y="418" type="line"/>
      <point x="139" y="406" type="line"/>
      <point x="139" y="503" type="line"/>
      <point x="268" y="491" type="line"/>
      <point x="258" y="595" type="line"/>
      <point x="430" y="595" type="line"/>
      <point x="420" y="492" type="line"/>
      <point x="549" y="503" type="line"/>
      <point x="549" y="406" type="line"/>
      <point x="413" y="419" type="line"/>
      <point x="406" y="340" type="line"/>
      <point x="664" y="352" type="line"/>
    </contour>
  </outline>
</glyph>
<glyph name="f_f" format="1">
  <advance width="510"/>
  <unicode hex="FB00"/>
  <outline>
    <contour>
      <point x="522" y="665" type="line"/>
      <point x="434" y="681" type="line"/>
      <point x="426" y="380" type="line"/>
      <point x="497" y="375" type="line"/>
      <point x="497" y="312" type="line"/>
      <point x="426" y="307" type="line"/>
      <point x="435" y="0" type="line"/>
      <point x="290" y="0" type="line"/>
      <point x="299" y="307" type="line"/>
      <point x="243" y="311" type="line"/>
      <point x="187" y="307" type="line"/>
      <point x="196" y="0" type="line"/>
      <point x="51" y="0" type="line"/>
      <point x="60" y="308" type="line"/>
      <point x="26" y="312" type="line"/>
      <point x="26" y="375" type="line"/>
      <point x="60" y="379" type="line"/>
      <point x="51" y="730" type="line"/>
      <point x="201" y="750" type="line"/>
      <point x="290" y="730" type="line"/>
      <point x="440" y="750" type="line"/>
      <point x="522" y="744" type="line"/>
    </contour>
    <contour>
      <point x="299" y="380" type="line"/>
      <point x="292" y="658" type="line"/>
      <point x="230" y="673" type="line"/>
      <point x="194" y="668" type="line"/>
      <point x="187" y="380" type="line"/>
      <point x="243" y="376" type="line"/>
    </contour>
  </outline>
</glyph>
<glyph name="f_f_i" format="1">
  <advance width="711"/>
  <unicode hex="FB03"/>
  <outline>
    <contour>
      <point x="667" y="0" type="line"/>
      <point x="523" y="0" type="line"/>
      <point x="531" y="188" type="line"/>
      <point x="526" y="308" type="line"/>
      <point x="426" y="304" type="line"/>
      <point x="435" y="0" type="line"/>
      <point x="290" y="0" type="line"/>
      <point x="299" y="307" type="line"/>
      <point x="243" y="311" type="line"/>
      <point x="187" y="307" type="line"/>
      <point x="196" y="0" type="line"/>
      <point x="51" y="0" type="line"/>
      <point x="60" y="308" type="line"/>
      <point x="26" y="312" type="line"/>
      <point x="26" y="375" type="line"/>
      <point x="60" y="379" type="line"/>
      <point x="51" y="730" type="line"/>
      <point x="201" y="750" type="line"/>
      <point x="290" y="730" type="line"/>
      <point x="466" y="750" type="line"/>
      <point x="661" y="728" type="line"/>
      <point x="617" y="612" type="line"/>
      <point x="482" y="679" type="line"/>
      <point x="433" y="674" type="line"/>
      <point x="426" y="383" type="line"/>
      <point x="667" y="375" type="line"/>
      <point x="659" y="188" type="line"/>
    </contour>
    <contour>
      <point x="299" y="380" type="line"/>
      <point x="292" y="658" type="line"/>
      <point x="230" y="673" type="line"/>
      <point x="194" y="668" type="line"/>
      <point x="187" y="380" type="line"/>
      <point x="243" y="376" type="line"/>
    </contour>
  </outline>
</glyph>
<glyph name="f_f_l" format="1">
  <advance width="726"/>
  <unicode hex="FB04"/>
  <outline>
    <contour>
      <point x="684" y="0" type="line"/>
      <point x="539" y="0" type="line"/>
      <point x="549" y="328" type="line"/>
      <point x="541" y="656" type="line"/>
      <point x="469" y="673" type="line"/>
      <point x="433" y="668" type="line"/>
      <point x="426" y="380" type="line"/>
      <point x="497" y="375" type="line"/>
      <point x="497" y="312" type="line"/>
      <point x="426" y="307" type="line"/>
      <point x="435" y="0" type="line"/>
      <point x="290" y="0" type="line"/>
      <point x="299" y="307" type="line"/>
      <point x="243" y="311" type="line"/>
      <point x="187" y="307" type="line"/>
      <point x="196" y="0" type="line"/>
      <point x="51" y="0" type="line"/>
      <point x="60" y="308" type="line"/>
      <point x="26" y="312" type="line"/>
      <point x="26" y="375" type="line"/>
      <point x="60" y="379" type="line"/>
      <point x="51" y="730" type="line"/>
      <point x="201" y="750" type="line"/>
      <point x="290" y="730" type="line"/>
      <point x="440" y="750" type="line"/>
      <point x="540" y="728" type="line"/>
      <point x="539" y="750" type="line"/>
      <point x="684" y="750" type="line"/>
      <point x="674" y="328" type="line"/>
    </contour>
    <contour>
      <point x="299" y="380" type="line"/>
      <point x="292" y="658" type="line"/>
      <point x="230" y="673" type="line"/>
      <point x="194" y="668" type="line"/>
      <point x="187" y="380" type="line"/>
      <point x="243" y="376" type="line"/>
    </contour>
  </outline>
</glyph>
<glyph name="bullet" format="1">
  <advance width="362"/>
  <outline>
    <contour>
      <point x="313" y="228" type="line"/>
      <point x="306" y="102" type="line"/>
      <point x="181" y="95" type="line"/>
      <point x="56" y="102" type="line"/>
      <point x="49" y="228" type="line"/>
      <point x="56" y="351" type="line"/>
      <point x="181" y="358" type="line"/>
      <point x="306" y="351" type="line"/>
    </contour>
  </outline>
</glyph>
<glyph name="f_i" format="1">
  <advance width="472"/>
  <outline>
    <contour>
      <point x="428" y="0" type="line"/>
      <point x="284" y="0" type="line"/>
      <point x="292" y="188" type="line"/>
      <point x="287" y="308" type="line"/>
      <point x="187" y="304" type="line"/>
      <point x="196" y="0" type="line"/>
      <point x="51" y="0" type="line"/>
      <point x="60" y="308" type="line"/>
      <point x="26" y="312" type="line"/>
      <point x="26" y="375" type="line"/>
      <point x="60" y="379" type="line"/>
      <point x="51" y="730" type="line"/>
      <point x="227" y="750" type="line"/>
      <point x="422" y="728" type="line"/>
      <point x="378" y="612" type="line"/>
      <point x="243" y="679" type="line"/>
      <point x="194" y="674" type="line"/>
      <point x="187" y="383" type="line"/>
      <point x="428" y="375" type="line"/>
      <point x="420" y="188" type="line"/>
    </contour>
  </outline>
</glyph>
<glyph name="f_l" format="1">
  <advance width="487"/>
  <outline>
    <contour>
      <point x="445" y="0" type="line"/>
      <point x="300" y="0" type="line"/>
      <point x="310" y="328" type="line"/>
      <point x="302" y="656" type="line"/>
      <point x="230" y="673" type="line"/>
      <point x="194" y="668" type="line"/>
      <point x="187" y="380" type="line"/>
      <point x="258" y="375" type="line"/>
      <point x="258" y="312" type="line"/>
      <point x="187" y="307" type="line"/>
      <point x="196" y="0" type="line"/>
      <point x="51" y="0" type="line"/>
      <point x="60" y="308" type="line"/>
      <point x="26" y="312" type="line"/>
      <point x="26" y="375" type="line"/>
      <point x="60" y="379" type="line"/>
      <point x="51" y="730" type="line"/>
      <point x="201" y="750" type="line"/>
      <point x="301" y="728" type="line"/>
      <point x="300" y="750" type="line"/>
      <point x="445" y="750" type="line"/>
      <point x="435" y="328" type="line"/>
    </contour>
  </outline>
</glyph>
<glyph name="g.salt" format="1">
  <advance width="459"/>
  <outline>
    <contour>
      <point x="413" y="375" type="line"/>
      <point x="407" y="116" type="line"/>
      <point x="412" y="-95" type="line"/>
      <point x="271" y="-140" type="line"/>
      <point x="134" y="-140" type="line"/>
      <point x="30" y="-128" type="line"/>
      <point x="44" y="-45" type="line"/>
      <point x="171" y="-77" type="line"/>
      <point x="270" y="-71" type="line"/>
      <point x="273" y="31" type="line"/>
      <point x="188" y="-5" type="line"/>
      <point x="53" y="16" type="line"/>
      <point x="38" y="188" type="line"/>
      <point x="53" y="359" type="line"/>
      <point x="188" y="380" type="line"/>
      <point x="272" y="345" type="line"/>
      <point x="271" y="375" type="line"/>
    </contour>
    <contour>
      <point x="278" y="117" type="line"/>
      <point x="275" y="290" type="line"/>
      <point x="225" y="306" type="line"/>
      <point x="180" y="298" type="line"/>
      <point x="169" y="188" type="line"/>
      <point x="180" y="77" type="line"/>
      <point x="225" y="69" type="line"/>
      <point x="276" y="85" type="line"/>
    </contour>
  </outline>
</glyph>
<glyph name="macron" format="1">
  <advance width="438"/>
  <outline>
    <contour>
      <point x="351" y="425" type="line"/>
      <point x="219" y="415" type="line"/>
      <point x="87" y="425" type="line"/>
      <point x="87" y="488" type="line"/>
      <point x="219" y="498" type="line"/>
      <point x="351" y="488" type="line"/>
    </contour>
  </outline>
</glyph>
<glyph name="registered" format="1">
  <advance width="715"/>
  <outline>
    <contour>
      <point x="671" y="297" type="line"/>
      <point x="636" y="46" type="line"/>
      <point x="426" y="-5" type="line"/>
      <point x="289" y="-5" type="line"/>
      <point x="79" y="46" type="line"/>
      <point x="44" y="297" type="line"/>
      <point x="79" y="549" type="line"/>
      <point x="289" y="600" type="line"/>
      <point x="426" y="600" type="line"/>
      <point x="636" y="549" type="line"/>
    </contour>
    <contour>
      <point x="630" y="297" type="line"/>
      <point x="600" y="520" type="line"/>
      <point x="421" y="563" type="line"/>
      <point x="294" y="563" type="line"/>
      <point x="115" y="520" type="line"/>
      <point x="85" y="297" type="line"/>
      <point x="115" y="75" type="line"/>
      <point x="294" y="32" type="line"/>
      <point x="421" y="32" type="line"/>
      <point x="600" y="75" type="line"/>
    </contour>
    <contour>
      <point x="555" y="155" type="line"/>
      <point x="461" y="99" type="line"/>
      <point x="304" y="259" type="line"/>
      <point x="299" y="259" type="line"/>
      <point x="303" y="108" type="line"/>
      <point x="185" y="108" type="line"/>
      <point x="191" y="301" type="line"/>
      <point x="185" y="495" type="line"/>
      <point x="401" y="495" type="line"/>
      <point x="516" y="461" type="line"/>
      <point x="530" y="377" type="line"/>
      <point x="516" y="294" type="line"/>
      <point x="424" y="266" type="line"/>
    </contour>
    <contour>
      <point x="417" y="377" type="line"/>
      <point x="409" y="427" type="line"/>
      <point x="367" y="440" type="line"/>
      <point x="301" y="440" type="line"/>
      <point x="297" y="314" type="line"/>
      <point x="367" y="314" type="line"/>
      <point x="409" y="327" type="line"/>
    </contour>
  </outline>
</glyph>
